<?xml version="1.0" standalone="no"?>
<!DOCTYPE svg PUBLIC "-//W3C//DTD SVG 1.1//EN" "http://www.w3.org/Graphics/SVG/1.1/DTD/svg11.dtd" >
<svg xmlns="http://www.w3.org/2000/svg">
<metadata>Generated by IcoMoon</metadata>
<defs>
<font id="icomoon" horiz-adv-x="1024">
<font-face units-per-em="1024" ascent="960" descent="-64" />
<missing-glyph horiz-adv-x="1024" />
<glyph unicode="&#x20;" horiz-adv-x="512" d="" />
<glyph unicode="&#xe043;" glyph-name="circle-cross" d="M512 896q95.667 0 182.5-37.167t149.667-100 100-149.667 37.167-182.5-37.167-182.5-100-149.667-149.667-100-182.5-37.167-182.5 37.167-149.667 100-100 149.667-37.167 182.5 37.167 182.5 100 149.667 149.667 100 182.5 37.167zM512 810.667q-78 0-149.167-30.5t-122.5-81.833-81.833-122.5-30.5-149.167 30.5-149.167 81.833-122.5 122.5-81.833 149.167-30.5 149.167 30.5 122.5 81.833 81.833 122.5 30.5 149.167-30.5 149.167-81.833 122.5-122.5 81.833-149.167 30.5zM632.667 590.334q17.667 0 30.333-12.5t12.667-30.167-12.667-30.333l-90.667-90.667 90.667-90.333q12.667-12.667 12.667-30 0-17.667-12.667-30.167t-30.333-12.5-30 12.333l-90.667 90.333-90.333-90.333q-12.333-12.333-30.333-12.333-17.667 0-30.167 12.333t-12.5 30q0 18 12.333 30.333l90.667 90.333-90.667 90.667q-12.333 12.333-12.333 30t12.5 30.333 30.167 12.667 30.333-12.667l90.333-90.667 90.667 90.667q12.667 12.667 30 12.667z" />
<glyph unicode="&#xe066;" glyph-name="cloud-upload" d="M640 853.334q78 0 149.167-30.5t122.5-81.833 81.833-122.5 30.5-149.167q0-72.667-26.5-139.667t-72-117.333-108.667-83.5-134.167-41.167v86q71.667 10.333 130.167 51.833t92.167 105.667 33.667 138.167q0 60.667-23.667 116t-63.667 95.333-95.333 63.667-116 23.667q-55.333 0-106.5-19.833t-90-53.833-65-81.333-33.833-101h-88.667q-70.667 0-120.667-50t-50-120.667q0-38.667 15.167-71.667t39.833-54.167 54.833-33 60.833-11.833h170.667v-85.333h-170.667q-69.667 0-128.5 34.333t-93.167 93.167-34.333 128.5 34.333 128.5 93.167 93.167 128.5 34.333h22q26.333 74.333 79.333 132.167t126.833 90.833 155.833 33zM554.667 512q17.667 0 30.333-12.667l128-128q12.333-12.333 12.333-30 0-18.333-12.167-30.5t-30.5-12.167q-18 0-30.333 12.333l-55 55.333v-281q0-17.667-12.5-30.167t-30.167-12.5-30.167 12.5-12.5 30.167v281l-55-55.333q-12.333-12.333-30.333-12.333-17.667 0-30.167 12.5t-12.5 30.167q0 17 12.333 30l128 128q12.667 12.667 30.333 12.667z" />
<glyph unicode="&#xe067;" glyph-name="cloud-download" d="M640 853.334q78 0 149.167-30.5t122.5-81.833 81.833-122.5 30.5-149.167q0-85-35-160.667t-96.667-129.167-140-77.5l21 20.667q18 18.333 28 42.667 9.333 22.667 9.333 49.333 0 6.667-0.333 9.333 59.333 41.333 93.833 105.833t34.5 139.5q0 60.667-23.667 116t-63.667 95.333-95.333 63.667-116 23.667q-55.333 0-106.5-19.833t-90-53.833-65-81.333-33.833-101h-88.667q-70.667 0-120.667-50t-50-120.667q0-38.667 15.167-71.667t39.833-54.167 54.833-33 60.833-11.833h50q11.667-29.333 30-48l37.667-37.333h-117.667q-69.667 0-128.5 34.333t-93.167 93.167-34.333 128.5 34.333 128.5 93.167 93.167 128.5 34.333h22q26.333 74.333 79.333 132.167t126.833 90.833 155.833 33zM554.667 512q17.667 0 30.167-12.5t12.5-30.167v-281l55 55.333q12.333 12.333 30.333 12.333 18.333 0 30.5-12.167t12.167-30.5q0-18-12.333-30.333l-128-128q-12.333-12.333-30.333-12.333t-30.333 12.333l-128 128q-12.333 13-12.333 30.333 0 17.667 12.5 30.167t30.167 12.5q18 0 30.333-12.333l55-55.333v281q0 17.667 12.5 30.167t30.167 12.5z" />
<glyph unicode="&#xe114;" glyph-name="plus" d="M512 853.334q17.667 0 30.167-12.5t12.5-30.167v-341.333h341.333q17.667 0 30.167-12.5t12.5-30.167-12.5-30.167-30.167-12.5h-341.333v-341.333q0-17.667-12.5-30.167t-30.167-12.5-30.167 12.5-12.5 30.167v341.333h-341.333q-17.667 0-30.167 12.5t-12.5 30.167 12.5 30.167 30.167 12.5h341.333v341.333q0 17.667 12.5 30.167t30.167 12.5z" />
<glyph unicode="&#xe122;" glyph-name="inbox" d="M512 896q17.667 0 30.167-12.5t12.5-30.167v-494.333l140.333 140.667q12.333 12.333 30.333 12.333 18.333 0 30.5-12.167t12.167-30.5q0-18-12.333-30.333l-213.333-213.333q-12.333-12.333-30.333-12.333t-30.333 12.333l-213.333 213.333q-12.333 13-12.333 30.333 0 17.667 12.5 30.167t30.167 12.5q18 0 30.333-12.333l140.333-140.667v494.333q0 17.667 12.5 30.167t30.167 12.5zM938.667 298.667q17.667 0 30.167-12.5t12.5-30.167v-170.667q0-53.333-37-90.333-37.667-37.667-90-37.667h-683.667q-52.333 0-90.667 37.333-37.333 38.333-37.333 90.667v170.667q0 17.667 12.5 30.167t30.167 12.5 30.167-12.5 12.5-30.167v-170.667q0-17.667 12.5-30.167t30.167-12.5h683.667q17.333 0 29.5 12.5t12.167 30.167v170.667q0 17.667 12.5 30.167t30.167 12.5z" />
<glyph unicode="&#xe123;" glyph-name="outbox" d="M512 894q18 0 30.333-12.333l213.333-213.333q12.333-12.333 12.333-30.333 0-18.333-12.167-30.5t-30.5-12.167q-18 0-30.333 12.333l-140.333 140.667v-494.333q0-17.667-12.5-30.167t-30.167-12.5-30.167 12.5-12.5 30.167v494.333l-140.333-140.667q-13-12.333-30.333-12.333-17.667 0-30.167 12.5t-12.5 30.167q0 17.333 12.333 30.333l213.333 213.333q12.333 12.333 30.333 12.333zM938.667 296.667q17.667 0 30.167-12.5t12.5-30.167v-170.667q0-53.333-37-90.333-37.667-37.667-90-37.667h-683.667q-52.333 0-90.667 37.333-37.333 38.333-37.333 90.667v170.667q0 17.667 12.5 30.167t30.167 12.5 30.167-12.5 12.5-30.167v-170.667q0-17.667 12.5-30.167t30.167-12.5h683.667q17.333 0 29.5 12.5t12.167 30.167v170.667q0 17.667 12.5 30.167t30.167 12.5z" />
<glyph unicode="&#xe313;" glyph-name="keyboard_arrow_down" d="M316 604.667l196-196 196 196 60-60-256-256-256 256z" />
<glyph unicode="&#xe314;" glyph-name="keyboard_arrow_left" d="M658 252.667l-60-60-256 256 256 256 60-60-196-196z" />
<glyph unicode="&#xe315;" glyph-name="keyboard_arrow_right" d="M366 240.667l196 196-196 196 60 60 256-256-256-256z" />
<glyph unicode="&#xe316;" glyph-name="keyboard_arrow_up" d="M316 280.667l-60 60 256 256 256-256-60-60-196 196z" />
<glyph unicode="&#xe5c3;" glyph-name="apps" d="M682 84.667v172h172v-172h-172zM682 340.667v172h172v-172h-172zM426 596.667v172h172v-172h-172zM682 768.667h172v-172h-172v172zM426 340.667v172h172v-172h-172zM170 340.667v172h172v-172h-172zM170 84.667v172h172v-172h-172zM426 84.667v172h172v-172h-172zM170 596.667v172h172v-172h-172z" />
<glyph unicode="&#xe7fd;" glyph-name="person" d="M512 340.667c114 0 342-56 342-170v-86h-684v86c0 114 228 170 342 170zM512 426.667c-94 0-170 76-170 170s76 172 170 172 170-78 170-172-76-170-170-170z" />
<glyph unicode="&#xe900;" glyph-name="calendar" d="M832 960h-128v-128h128v128zM960 960h-64v-192h-256v192h-256v-192h-256v192h-64c-35.376 0-64-28.656-64-64v-896c0-35.376 28.624-64 64-64h896c35.376 0 64 28.624 64 64v896c0 35.344-28.624 64-64 64zM896 64h-768v576h768v-576zM320 960h-128v-128h128v128zM576 512h-128v-128h128v128zM768 512h-128v-128h128v128zM384 320h-128v-128h128v128zM384 512h-128v-128h128v128zM576 320h-128v-128h128v128zM768 320h-128v-128h128v128z" />
<glyph unicode="&#xe901;" glyph-name="map-pin-fill" horiz-adv-x="640" d="M546.24 866.24c-124.992 124.992-327.488 124.992-452.512 0-124.992-124.928-124.992-327.616 0-452.48 0.032 0 226.272-221.76 226.272-477.76 0 256 226.24 477.76 226.24 477.76 125.024 124.864 125.024 327.552 0 452.48zM320 512c-70.752 0-128 57.248-128 128s57.248 128 128 128 128-57.248 128-128-57.248-128-128-128z" />
<glyph unicode="&#xe902;" glyph-name="icon--dizhi" horiz-adv-x="1092" d="M431.964-64c-33.716 0-64.326 17.272-81.935 46.202-17.851 29.328-19.090 65.050-3.314 95.558l129.865 251.129c8.587 16.606 29.010 23.107 45.616 14.519s23.105-29.009 14.518-45.615l-129.864-251.13c-6.966-13.471-1.615-24.952 1.008-29.262 2.507-4.12 9.871-13.702 24.051-13.702l571.75 0.925-429.002 849.872-511.362-900.959c-9.227-16.26-29.887-21.961-46.147-12.73-16.259 9.228-21.957 29.888-12.73 46.147l542.549 955.906c6.16 10.851 17.792 17.439 30.264 17.131 12.474-0.305 23.77-7.447 29.392-18.586l482.215-955.288c5.293-10.486 4.772-22.963-1.376-32.97s-17.042-16.113-28.787-16.132l-626.709-1.014z" />
<glyph unicode="&#xe903;" glyph-name="water" d="M562.161 313.865c0-137.674-111.607-249.28-249.28-249.28s-249.28 111.607-249.28 249.28 249.28 552.508 249.28 552.508 249.28-414.833 249.28-552.508zM958.867 559.46c0-98.787-80.083-178.87-178.87-178.87s-178.87 80.083-178.87 178.87 178.87 396.447 178.87 396.447 178.87-297.66 178.87-396.447z" />
<glyph unicode="&#xe904;" glyph-name="icon--dizhi4" horiz-adv-x="1083" d="M33.52-64c-5.564 0-11.204 1.386-16.4 4.306-16.151 9.074-21.89 29.524-12.815 45.675l537.602 956.904c6.081 10.826 17.641 17.406 30.061 17.105 12.414-0.302 23.646-7.437 29.194-18.546l477.95-956.903c5.194-10.398 4.634-22.745-1.478-32.63-6.113-9.887-16.909-15.904-28.532-15.904h-621.075c-31.433 0-60.878 17.545-78.767 46.934-19.887 32.674-22.056 72.667-5.66 104.373l128.697 248.871c8.51 16.457 28.749 22.899 45.206 14.389s22.897-28.748 14.388-45.205l-128.697-248.872c-5.54-10.713-4.183-26.255 3.377-38.674 2.694-4.428 10.18-14.725 21.457-14.725h566.822l-425.438 851.771-506.613-901.746c-6.155-10.956-17.546-17.121-29.277-17.122zM903.591 548.393c-11.563 0-22.812 5.983-29.038 16.701l-170.972 294.331c-9.306 16.019-3.862 36.55 12.156 45.855 16.020 9.306 36.549 3.863 45.856-12.157l170.972-294.331c9.306-16.019 3.862-36.55-12.156-45.855-5.301-3.080-11.099-4.544-16.818-4.544z" />
<glyph unicode="&#xe905;" glyph-name="wei" d="M921.863 887.946l-70.087-285.621c-8.249 2.82-15.118 7.165-23.866 12.705-20.438 12.943-48.428 30.671-98.929 30.671s-78.49-17.727-98.928-30.671c-16.128-10.214-25.862-16.379-49.652-16.379-23.788 0-33.521 6.164-49.648 16.378-20.437 12.944-48.427 30.672-98.926 30.672s-78.49-17.727-98.926-30.671c-16.126-10.214-25.861-16.379-49.649-16.379s-33.521 6.164-49.648 16.378c-16.058 10.171-36.785 23.289-69.423 28.446l-59.99 244.471-89.444-21.948 196.301-799.967h603.958l196.3 799.967-89.443 21.948zM283.251 506.554c50.499 0 78.49 17.727 98.926 30.671 16.126 10.214 25.861 16.379 49.649 16.379s33.521-6.164 49.649-16.379c20.436-12.944 48.427-30.671 98.925-30.671 50.501 0 78.491 17.727 98.929 30.671 16.127 10.214 25.862 16.379 49.652 16.379s33.526-6.164 49.652-16.379c12.837-8.13 28.659-18.145 51.162-24.471l-24.498-99.835h-584.541l-29.425 119.914c19.833-12.219 46.946-26.279 91.921-26.279zM283.278 158.129l-39.922 162.692h539.342l-39.922-162.691h-459.497z" />
<glyph unicode="&#xe906;" glyph-name="dc-90" d="M1005.819 19.632l-196.991 197.286c27.476 33.521 49.904 70.626 66.887 110.78 23.715 56.066 35.739 115.598 35.739 176.94s-12.024 120.873-35.739 176.94c-22.895 54.131-55.664 102.737-97.392 144.466-41.728 41.727-90.333 74.495-144.465 97.39-56.067 23.714-115.599 35.739-176.94 35.739-61.342 0-120.873-12.024-176.941-35.739-54.131-22.895-102.736-55.663-144.465-97.391-41.729-41.729-74.497-90.334-97.392-144.466-23.714-56.067-35.738-115.598-35.738-176.94s12.024-120.874 35.738-176.94c22.896-54.132 55.664-102.737 97.392-144.466 41.728-41.728 90.334-74.496 144.465-97.391 56.067-23.715 115.598-35.739 176.94-35.739s120.873 12.024 176.94 35.739c39.744 16.81 76.495 38.962 109.747 66.055l197.043-197.337c8.995-9.008 20.787-13.512 32.586-13.512 11.772 0 23.548 4.488 32.537 13.463 17.997 17.969 18.018 47.126 0.049 65.123zM456.918 142.199c-199.85 0-362.439 162.589-362.439 362.438 0 199.85 162.589 362.439 362.439 362.439s362.439-162.589 362.439-362.439c0-199.849-162.589-362.438-362.439-362.438z" />
<glyph unicode="&#xe907;" glyph-name="wen" d="M819.276 81.358c-62.425 0-96.334-17.627-123.582-31.79-23.91-12.429-41.185-21.409-81.101-21.409-39.914 0-57.187 8.98-81.096 21.409-27.246 14.164-61.154 31.79-123.575 31.79-62.423 0-96.331-17.627-123.577-31.79-23.909-12.429-41.183-21.409-81.097-21.409s-57.187 8.98-81.096 21.409c-27.246 14.164-61.153 31.79-123.575 31.79v-92.098c39.913 0 57.187-8.98 81.096-21.409 27.246-14.164 61.154-31.79 123.575-31.79s96.331 17.627 123.577 31.79c23.909 12.429 41.183 21.409 81.097 21.409s57.188-8.98 81.097-21.409c27.246-14.164 61.154-31.79 123.575-31.79 62.424 0 96.333 17.626 123.58 31.789 23.91 12.429 41.186 21.41 81.103 21.41s57.192-8.98 81.102-21.409c27.246-14.164 61.156-31.79 123.58-31.79v92.098c-39.916 0-57.193 8.98-81.102 21.409-27.249 14.163-61.156 31.79-123.581 31.79zM942.856 262.395c-27.247 14.164-61.156 31.79-123.581 31.79s-96.334-17.627-123.581-31.79c-10.156-5.28-19.12-9.933-29.126-13.544 0.815-6.513 1.236-13.107 1.236-19.749 0-28.484-7.483-55.248-20.575-78.447 42.428 4.809 68.875 18.55 90.945 30.024 23.91 12.429 41.185 21.41 81.101 21.41s57.192-8.98 81.101-21.41c27.247-14.164 61.156-31.79 123.581-31.79v92.098c-39.917-0.001-57.193 8.978-81.102 21.409zM209.852 148.888c62.423 0 96.331 17.627 123.578 31.791 8.072 4.197 15.388 7.997 23.075 11.194-2.856 11.951-4.379 24.415-4.379 37.229 0 20.764 4.098 41.476 11.912 60.626-32.317-6.143-54.29-17.561-73.089-27.334-23.909-12.429-41.183-21.409-81.097-21.409s-57.187 8.98-81.096 21.409c-27.246 14.165-61.154 31.791-123.575 31.791v-92.098c39.913 0 57.186-8.98 81.095-21.409 27.247-14.164 61.155-31.791 123.577-31.791zM512.267 124.073c58.005 0 105.027 47.022 105.027 105.027 0 35.246-17.363 66.434-44 85.484v197.457h127.901c16.955 0 30.699 13.744 30.699 30.699v0c0 16.955-13.744 30.699-30.699 30.699h-127.901v51.922h127.9c16.955 0 30.699 13.744 30.699 30.699v0c0 16.955-13.744 30.699-30.699 30.699h-127.9v51.921h127.9c16.955 0 30.699 13.744 30.699 30.699v0c0 16.955-13.744 30.699-30.699 30.699h-127.9v95.669c0 34.27-27.781 62.050-62.050 62.050v0c-34.27 0-62.050-27.781-62.050-62.050v-582.664c-25.476-19.164-41.954-49.648-41.954-83.983 0-58.005 47.022-105.027 105.027-105.027z" />
<glyph unicode="&#xe908;" glyph-name="yali" d="M-3.19 93.527h1027.147v-122.797h-1027.147v122.797zM323.616 94.635l130.817 168.566h-84.769v569.109h-92.098v-569.109h-84.769zM698.128 94.635l130.817 168.566h-84.769v569.109h-92.098v-569.109h-84.769z" />
<glyph unicode="&#xe909;" glyph-name="weiyi" d="M962.559 570.815v112.564h-694.81v137.831l-268.772-250.186zM-1.024 382.376v-112.564h694.811v-137.831l268.772 250.186zM-1.024 48.057h961.469v-112.564h-961.469v112.564z" />
<glyph unicode="&#xe90a;" glyph-name="triangle-down" d="M256 665.6h512l-256-460.8-256 460.8z" />
<glyph unicode="&#xe90b;" glyph-name="gps" d="M575.199 447.696c0-36.451-29.549-66-66-66s-66 29.549-66 66c0 36.451 29.549 66 66 66s66-29.549 66-66zM643.289 583.23l-43.416-43.416c23.492-23.911 36.423-55.484 36.423-89.048 0-33.949-13.22-65.866-37.226-89.871-0.271-0.271-0.55-0.534-0.823-0.803l43.416-43.416c34.59 34.173 56.032 81.625 56.032 134.090-0.001 51.638-20.772 98.419-54.406 132.464zM756.267 696.208l-57.886-57.886c24.154-24.359 43.115-52.619 56.332-83.876 13.826-32.7 20.894-67.634 20.894-103.678s-7.068-70.979-20.894-103.678c-13.364-31.607-32.592-60.156-57.135-84.699-0.271-0.271-0.551-0.533-0.823-0.803l57.886-57.886c63.503 63.088 102.829 150.482 102.829 247.068 0 95.757-38.655 182.48-101.203 245.44zM869.251 809.19l-72.363-72.363c36.906-37.11 65.906-80.222 86.187-128.17 21.128-49.953 31.841-103.075 31.841-157.891s-10.713-107.938-31.841-157.891c-20.429-48.3-49.697-91.699-86.99-128.993-0.271-0.271-0.551-0.533-0.823-0.803l72.363-72.363c92.417 92.001 149.621 219.345 149.621 360.051 0 139.879-56.534 266.551-147.995 358.423zM135.325 292.874c-21.128 49.953-31.841 103.075-31.841 157.891s10.713 107.938 31.841 157.891c20.281 47.948 49.281 91.060 86.187 128.17l-72.363 72.363c-91.461-91.871-147.996-218.543-147.996-358.423 0-140.707 57.205-268.049 149.621-360.051l72.363 72.363c-0.272 0.27-0.552 0.532-0.823 0.803-37.292 37.293-66.56 80.693-86.989 128.993zM263.687 347.087c-13.826 32.7-20.894 67.634-20.894 103.678s7.068 70.98 20.894 103.678c13.216 31.257 32.177 59.518 56.332 83.876l-57.886 57.886c-62.548-62.959-101.203-149.683-101.203-245.442 0-96.586 39.326-183.98 102.829-247.068l57.886 57.886c-0.272 0.27-0.552 0.532-0.823 0.803-24.543 24.545-43.771 53.095-57.135 84.701zM382.103 450.766c0 33.564 12.93 65.139 36.423 89.048l-43.416 43.416c-33.634-34.044-54.406-80.826-54.406-132.464 0-52.465 21.442-99.917 56.032-134.090l43.416 43.416c-0.273 0.269-0.552 0.531-0.823 0.803-24.006 24.005-37.226 55.922-37.226 89.871z" />
<glyph unicode="&#xe90c;" glyph-name="cexie" d="M900.589 767.247v-138.138l-167.438 95.718v-86.288h-611.247v128.708h-122.797v-640.156h122.797v160.005l165.677-107.704v98.072h613.009v-150.373h122.797v640.156h-122.797zM287.581 369.563v100.752l-165.677-107.704v183.831h611.247v-83.248l167.438 95.719v-189.348h-613.009z" />
<glyph unicode="&#xe90d;" glyph-name="wendu" d="M225.76 831.921c-51.063 0-92.606-41.543-92.606-92.606s41.543-92.606 92.606-92.606 92.606 41.543 92.606 92.606-41.543 92.606-92.606 92.606zM728.561 129.284h-133.778c-67.534 0-122.477 54.943-122.477 122.477v355.018c0 67.534 54.943 122.477 122.477 122.477h133.778c67.534 0 122.477-54.943 122.477-122.477h102.331c0 60.049-23.385 116.503-65.845 158.963s-98.916 65.845-158.964 65.845h-133.777c-60.049 0-116.503-23.385-158.963-65.845-42.461-42.46-65.845-98.915-65.845-158.963v-355.018c0-60.049 23.385-116.503 65.845-158.963 42.461-42.461 98.916-65.846 158.964-65.846h133.778c60.049 0 116.503 23.385 158.964 65.846s65.845 98.915 65.845 158.963h-102.331c-0.001-67.534-54.945-122.477-122.48-122.477z" />
<glyph unicode="&#xe90e;" glyph-name="diz-da90" d="M45.97-16.493c-7.644-0.001-15.391 1.904-22.527 5.918-22.169 12.465-30.034 40.54-17.569 62.708l493.451 877.581c8.352 14.856 24.238 23.9 41.264 23.465 17.036-0.416 32.451-10.207 40.068-25.453l438.482-877.582c7.132-14.274 6.366-31.224-2.025-44.796s-23.212-21.834-39.168-21.834h-565.753c-33.433 0-64.672 18.429-83.562 49.298-20.887 34.13-23.194 76.206-6.021 109.807l114.441 223.936c11.574 22.645 39.315 31.621 61.96 20.049 22.647-11.574 31.622-39.313 20.050-61.959l-114.443-223.937c-2.051-4.014-1.665-10.739 0.961-16.733 2.48-5.66 5.761-8.12 6.676-8.376l491.207 0.010-366.398 733.314-450.911-801.928c-8.451-15.030-24.084-23.486-40.181-23.487zM850.35 664.611c-16.893 0-33.154 9.328-41.223 25.465l-98.237 196.475c-11.373 22.747-2.153 50.407 20.593 61.781 22.749 11.373 50.408 2.153 61.781-20.594l98.237-196.475c11.373-22.747 2.153-50.407-20.593-61.781-6.611-3.304-13.639-4.871-20.558-4.871z" />
<glyph unicode="&#xe90f;" glyph-name="qix90" d="M824.735 60.402h-628.1c-53.941 0-103.654 20.941-139.983 58.966-35.472 37.128-55.007 87.193-55.007 140.973 0 92.376 56.292 168.816 137.983 193.333 15.627 61.945 49.907 118.114 98.564 160.651 57.556 50.315 131.398 78.025 207.924 78.025 111.247 0 212.86-58.099 269.723-151.186 22.873 6.858 46.77 10.404 70.742 10.404 65.618 0 126.133-25.907 170.395-72.95 43.011-45.713 66.698-107.039 66.698-172.682 0-58.653-17.922-115.85-50.463-161.053-36.763-51.067-88.534-81.041-145.774-84.401-0.902-0.052-1.801-0.079-2.701-0.079zM446.113 600.252c-110.716 0-206.018-82.498-221.682-191.898-2.969-20.737-19.56-36.857-40.375-39.226-53.176-6.054-90.315-50.789-90.315-108.787 0-61.479 44.234-107.841 102.892-107.841h626.61c66.947 4.834 108.328 83.121 108.328 153.435 0 87.528-62.334 153.534-144.994 153.534-25.063 0-48.949-5.844-70.994-17.369-11.359-5.937-24.675-6.873-36.75-2.583s-21.818 13.419-26.883 25.19c-35.432 82.34-116.228 135.545-205.838 135.545zM928.688 659.524c-15.593-0.001-28.943 11.831-30.512 27.675-10.834 109.354-108.619 189.503-217.962 178.672-16.868-1.668-31.905 10.653-33.576 27.524-1.672 16.872 10.651 31.905 27.523 33.576 69.29 6.863 137.111-13.667 190.961-57.811s87.288-106.616 94.151-175.908c1.672-16.872-10.651-31.905-27.523-33.576-1.027-0.102-2.052-0.151-3.063-0.152zM843.687 626.846c-15.593-0.001-28.943 11.831-30.512 27.675-7.598 76.7-76.177 132.921-152.878 125.32-16.863-1.673-31.905 10.652-33.576 27.523s10.651 31.905 27.523 33.577c110.376 10.94 209.092-69.977 220.028-180.367 1.672-16.872-10.651-31.905-27.523-33.577-1.027-0.101-2.052-0.151-3.063-0.151zM755.774 593.315c-15.593-0.001-28.943 11.831-30.512 27.675-2.113 21.337-12.41 40.573-28.991 54.167-16.583 13.594-37.463 19.915-58.802 17.801-16.864-1.677-31.905 10.652-33.576 27.523-1.672 16.872 10.651 31.905 27.523 33.577 37.656 3.729 74.512-7.427 103.778-31.418 29.266-23.989 47.436-57.941 51.166-95.597 1.672-16.872-10.651-31.905-27.523-33.576-1.027-0.102-2.052-0.152-3.063-0.152z" />
<glyph unicode="&#xe910;" glyph-name="qix60" d="M836.068 65.95h-650.911c-51.206 0-98.354 19.833-132.759 55.844-33.72 35.295-52.291 83.001-52.291 134.333 0 91.451 57.719 166.476 140.214 186.579 14.122 64.645 48.787 123.458 99.103 167.444 56.543 49.43 129.088 76.652 204.271 76.652 113.846 0 217.429-61.941 271.748-160.144 25.881 9.372 53.429 14.249 81.082 14.249 63.258 0 121.567-24.946 164.185-70.242 41.59-44.204 64.495-103.615 64.495-167.288 0-56.414-17.891-113.623-49.089-156.957-35.047-48.683-84.145-77.241-138.253-80.418-0.597-0.034-1.197-0.052-1.797-0.052zM443.696 625.404c-123.151 0-229.157-91.775-246.582-213.476-1.98-13.825-13.041-24.572-26.917-26.152-63.997-7.286-108.691-60.6-108.691-129.649 0-73.416 53.159-128.78 123.651-128.78h649.957c44.771 2.96 74.274 31.468 91.176 54.943 23.844 33.121 37.52 77.256 37.52 121.085 0 100.412-71.916 176.132-167.283 176.132-28.748 0-56.154-6.708-81.459-19.937-7.57-3.957-16.451-4.582-24.499-1.722-8.050 2.86-14.545 8.946-17.922 16.793-39.41 91.585-129.277 150.762-228.949 150.762zM928.688 659.524c-15.593-0.001-28.943 11.831-30.512 27.675-10.834 109.354-108.619 189.503-217.962 178.672-16.868-1.668-31.905 10.653-33.576 27.524-1.672 16.872 10.651 31.905 27.523 33.576 69.29 6.863 137.111-13.667 190.961-57.811s87.288-106.616 94.151-175.908c1.672-16.872-10.651-31.905-27.523-33.576-1.027-0.102-2.052-0.151-3.063-0.152zM843.687 626.846c-15.593-0.001-28.943 11.831-30.512 27.675-7.598 76.7-76.177 132.921-152.878 125.32-16.863-1.673-31.905 10.652-33.576 27.523s10.651 31.905 27.523 33.577c110.376 10.94 209.092-69.977 220.028-180.367 1.672-16.872-10.651-31.905-27.523-33.577-1.027-0.101-2.052-0.151-3.063-0.151zM755.774 593.315c-15.593-0.001-28.943 11.831-30.512 27.675-2.113 21.337-12.41 40.573-28.991 54.167-16.583 13.594-37.463 19.915-58.802 17.801-16.864-1.677-31.905 10.652-33.576 27.523-1.672 16.872 10.651 31.905 27.523 33.577 37.656 3.729 74.512-7.427 103.778-31.418 29.266-23.989 47.436-57.941 51.166-95.597 1.672-16.872-10.651-31.905-27.523-33.576-1.027-0.102-2.052-0.152-3.063-0.152z" />
<glyph unicode="&#xe911;" glyph-name="people6" d="M1017.232 108.196c0 76.442-137.071 197.315-332.909 263.466-28.293 9.557-55.984 74.016-39.152 98.685 49.437 72.454 97.317 178.295 97.317 249.24 0 131.239-105.14 237.629-234.838 237.629s-234.836-106.39-234.836-237.629c0-72.973 48.057-181.985 98.484-254.848 16.758-24.213-10.347-88.457-38.051-98.437-192.469-69.335-332.108-183.511-332.108-258.104 0-96.797 227.459-125.119 508.046-125.119s508.046 28.322 508.046 125.119z" />
<glyph unicode="&#xe912;" glyph-name="people5" horiz-adv-x="1755" d="M1416.839 83.248c0 96.395-154.62 241.799-366.499 267.783-18.565 2.277-26.832 75.401-14.535 88.795 73.126 79.645 121.276 192.682 121.276 279.539 0.002 131.888-112.658 238.806-251.632 238.806s-251.637-106.918-251.637-238.808c0-86.815 48.922-199.782 121.84-279.42 12.275-13.407 3.984-86.519-14.577-88.775-212.447-25.836-367.605-171.357-367.605-267.92 0-117.334 1.501-137.472 511.685-137.472 511.987-0.002 511.684 20.136 511.684 137.472z" />
<glyph unicode="&#xe913;" glyph-name="people4" horiz-adv-x="1755" d="M1416.839 147.253c0 96.395-154.62 177.792-366.499 203.776-18.565 2.277-26.832 75.401-14.535 88.795 73.126 79.645 121.276 192.682 121.276 279.539 0.002 131.889-112.658 238.808-251.632 238.808s-251.637-106.918-251.637-238.808c0-86.815 48.922-199.782 121.84-279.42 12.275-13.407 3.984-86.519-14.577-88.775-212.447-25.836-367.605-107.352-367.605-203.913 0-117.334 1.501-212.451 511.685-212.451 511.987-0.002 511.684 95.115 511.684 212.449z" />
<glyph unicode="&#xe914;" glyph-name="people3" d="M1023.37 149.022c0 96.394-154.62 177.792-366.498 203.776-18.565 2.277-26.833 75.401-14.535 88.795 73.126 79.646 121.277 192.681 121.277 279.539 0 131.89-112.661 238.808-251.634 238.808s-251.636-106.918-251.636-238.808c0-86.814 48.921-199.782 121.839-279.421 12.275-13.406 3.985-86.518-14.578-88.776-212.448-25.835-367.604-107.351-367.604-203.913 0-117.333 229.090-212.452 511.685-212.452s511.685 95.117 511.685 212.452z" />
<glyph unicode="&#xe915;" glyph-name="people2" horiz-adv-x="1755" d="M1416.839 160.9c0 87.857-153.412 162.105-364.048 186.216-17.373 1.988-25.446 22.601-14.089 35.899 71.499 83.721 118.382 200.887 118.382 291.196 0 138.975-112.66 251.633-251.633 251.633s-251.637-112.66-251.637-251.633c0-90.242 47.609-207.301 118.899-291.012 11.339-13.314 3.24-33.918-14.137-35.882-211.553-23.898-365.829-98.315-365.829-186.419 0-107.399 229.252-194.463 512.046-194.463s512.048 87.066 512.048 194.465z" />
<glyph unicode="&#xe916;" glyph-name="people1" d="M645.008 374.25c-27.007 6.2-37.949 38.906-20.117 60.116 57.073 67.881 90.594 163.884 90.594 250.404 0 147.484-106.108 267.043-236.997 267.043s-236.998-119.559-236.998-267.043c0-88.809 37.134-185.977 94.794-253.781 17.877-21.023 7.787-53.573-18.989-60.244-170.394-42.45-292.576-150.361-292.576-231.235 0-106.178 205.748-203.509 459.551-203.509s459.55 97.331 459.55 203.509c0 83.191-123.335 194.453-298.814 234.74z" />
<glyph unicode="&#xe917;" glyph-name="diz-da" d="M1021.141-17.195l-282.334 282.334c28.705 33.17 51.86 70.363 69.011 110.913 21.895 51.764 32.995 106.733 32.995 163.38s-11.102 111.617-32.995 163.381c-21.14 49.982-51.4 94.866-89.936 133.401-38.536 38.537-83.418 68.795-133.401 89.936-51.764 21.895-106.733 32.995-163.38 32.995s-111.617-11.101-163.381-32.995c-49.982-21.142-94.866-51.4-133.401-89.936-38.537-38.536-68.795-83.419-89.936-133.401-21.895-51.764-32.995-106.734-32.995-163.381s11.102-111.616 32.995-163.38c21.142-49.983 51.4-94.866 89.936-133.401s83.419-68.796 133.401-89.936c51.764-21.895 106.734-32.995 163.381-32.995s111.617 11.102 163.381 32.995c40.55 17.151 77.742 40.305 110.912 69.010l282.334-282.334 43.414 43.415zM421.1 181.118c-197.576 0-358.316 160.739-358.316 358.315s160.74 358.316 358.316 358.316c197.576 0 358.316-160.74 358.316-358.316s-160.741-358.315-358.316-358.315z" />
<glyph unicode="&#xe918;" glyph-name="dc-60" horiz-adv-x="1755" d="M1413.784-10.796l-330.84 330.84c24.827 29.617 45.005 62.559 60.134 98.331 20.337 48.084 30.649 99.143 30.649 151.762s-10.311 103.678-30.649 151.762c-19.637 46.429-47.744 88.117-83.538 123.913-35.794 35.794-77.486 63.901-123.913 83.538-48.082 20.337-99.143 30.649-151.762 30.649s-103.678-10.311-151.76-30.651c-46.429-19.637-88.117-47.744-123.911-83.538s-63.899-77.484-83.538-123.913c-20.337-48.084-30.651-99.143-30.651-151.762s10.311-103.678 30.651-151.762c19.637-46.429 47.744-88.119 83.538-123.913s77.484-63.901 123.911-83.538c48.084-20.337 99.143-30.651 151.762-30.651s103.678 10.311 151.762 30.651c38.208 16.161 73.198 38.069 104.342 65.264l330.397-330.399 43.416 43.418zM783.867 241.673c-181.115 0-328.463 147.348-328.463 328.463s147.348 328.463 328.463 328.463 328.463-147.348 328.463-328.463-147.346-328.463-328.463-328.463z" />
<glyph unicode="&#xe919;" glyph-name="diz-30" horiz-adv-x="1755" d="M338.209-0.962c-2.92 0-5.879 0.647-8.598 2.011-8.36 4.193-11.282 13.564-6.526 20.932l600.68 930.258c3.173 4.913 9.125 7.896 15.568 7.755 6.415-0.139 12.22-3.374 15.119-8.421l533.765-930.258c2.73-4.758 2.461-10.425-0.708-14.965-3.169-4.542-8.786-7.309-14.837-7.309h-688.695c-27.785 0-52.981 13.403-69.125 36.776-18.123 26.236-20.226 58.138-5.486 83.253l139.312 237.378c4.418 7.53 14.927 10.476 23.475 6.585 8.545-3.895 11.891-13.155 7.473-20.687l-139.312-237.376c-9.051-15.426-7.367-36.304 4.297-53.191 9.675-14.005 24.022-22.036 39.365-22.036h660.367l-506.344 882.465-584.635-905.408c-3.209-4.97-9.097-7.762-15.157-7.762zM1224.708 695.044c-6.391 0-12.542 3.11-15.596 8.488l-115.16 202.944c-4.303 7.583-0.816 16.801 7.79 20.593s19.068 0.719 23.371-6.864l115.16-202.944c4.303-7.583 0.816-16.801-7.79-20.593-2.5-1.103-5.158-1.624-7.775-1.624z" />
<glyph unicode="&#xe91a;" glyph-name="diz-60" horiz-adv-x="1755" d="M356.2-2.010c-5.84 0-11.76 1.295-17.2 4.021-16.726 8.386-22.572 27.129-13.054 41.865l581.61 900.604c6.347 9.829 18.299 15.804 31.142 15.508 12.831-0.278 24.45-6.747 30.239-16.839l516.82-900.606c5.46-9.516 4.924-20.849-1.415-29.932-6.341-9.084-17.578-14.618-29.681-14.618h-666.829c-32.834 0-63.596 16.152-82.288 43.207-20.787 30.091-23.058 66.918-5.921 96.11l134.888 229.809c8.839 15.062 29.862 20.955 46.956 13.168s23.786-26.309 14.945-41.37l-134.89-229.809c-5.855-9.975-4.429-24.435 3.549-35.983 2.853-4.129 10.779-13.733 22.758-13.733h610.167l-461.967 805.023-549.511-850.904c-6.422-9.944-18.198-15.523-30.32-15.523zM1214.585 671.808c-12.784 0-25.088 6.219-31.192 16.976l-111.503 196.476c-8.605 15.164-1.629 33.605 15.583 41.189 17.211 7.581 38.142 1.435 46.747-13.729l111.504-196.475c8.605-15.164 1.629-33.605-15.583-41.189-5.001-2.203-10.32-3.249-15.557-3.249z" />
<glyph unicode="&#xe91b;" glyph-name="tc-30" horiz-adv-x="1755" d="M1399.347-18.589l-326.129 326.131c29.564 32.58 53.189 69.541 70.349 110.111 20.361 48.139 30.685 99.264 30.685 151.96s-10.324 103.821-30.685 151.962c-19.663 46.49-47.81 88.236-83.657 124.083s-77.595 63.993-124.083 83.657c-48.139 20.361-99.264 30.685-151.96 30.685s-103.821-10.324-151.96-30.685c-46.49-19.663-88.236-47.808-124.083-83.657s-63.993-77.595-83.657-124.083c-20.361-48.139-30.685-99.266-30.685-151.962s10.326-103.821 30.685-151.96c19.663-46.49 47.808-88.238 83.657-124.083 35.847-35.847 77.595-63.993 124.083-83.657 48.139-20.361 99.264-30.685 151.96-30.685s103.821 10.324 151.96 30.685c42.993 18.183 81.922 43.639 115.888 75.716l325.926-325.926 21.707 21.709zM783.867 209.927c-198.331 0-359.685 161.355-359.685 359.685s161.355 359.689 359.685 359.689 359.685-161.355 359.685-359.687-161.353-359.687-359.685-359.687z" />
<glyph unicode="&#xe91c;" glyph-name="icon--guanli2" horiz-adv-x="1251" d="M0 14.864h832.75v-78.864h-832.75v78.864zM0 329.909h1250.142v-78.864h-1250.142v78.864zM1.314 960h1250.142v-78.864h-1250.142v78.864zM0 644.954h832.75v-78.864h-832.75v78.864z" />
<glyph unicode="&#xe91d;" glyph-name="icon--tiaocha22" d="M1032.707-15.565l-313.061 313.061c24.701 30.022 44.817 63.3 60.007 99.335 21.012 49.844 31.629 102.783 31.561 157.346-0.070 54.601-10.837 107.597-32.002 157.514-20.435 48.195-49.651 91.485-86.833 128.668s-80.474 66.398-128.667 86.833c-49.919 21.166-102.914 31.933-157.514 32.002h-0.525c-54.556 0-107.475-10.685-157.29-31.759-48.11-20.353-91.292-49.484-128.348-86.588-37.054-37.102-66.13-80.319-86.42-128.453-21.014-49.842-31.631-102.781-31.562-157.344 0.070-54.601 10.837-107.596 32.002-157.514 20.435-48.195 49.65-91.485 86.833-128.668s80.474-66.398 128.668-86.833c49.918-21.166 102.914-31.932 157.514-32.002h0.525c54.555 0 107.475 10.684 157.29 31.758 41.315 17.478 78.984 41.449 112.272 71.365l312.136-312.136 43.415 43.414zM407.594 211.431h-0.447c-189.274 0.24-343.456 154.423-343.698 343.699-0.117 91.569 35.406 177.631 100.025 242.332 64.62 64.703 150.634 100.336 242.196 100.336h0.447c189.274-0.24 343.456-154.423 343.698-343.698 0.117-91.57-35.407-177.632-100.025-242.333-64.621-64.703-150.633-100.336-242.196-100.336z" />
<glyph unicode="&#xe91e;" glyph-name="icon--yun22" horiz-adv-x="1219" d="M992.673-64h-770.871c-61.373 0-117.89 23.779-159.142 66.956-40.408 42.293-62.661 99.442-62.661 160.92 0 108.971 68.437 198.475 166.473 223.141 17.067 76.476 58.258 146.020 117.855 198.119 67.445 58.962 153.98 91.433 243.66 91.433 135.038 0 257.969-73.057 323.052-189.057 30.321 10.708 62.5 16.273 94.803 16.273 75.653 0 145.394-29.839 196.372-84.021 49.72-52.843 77.101-123.847 77.101-199.933 0-67.354-21.371-135.669-58.634-187.431-41.98-58.313-100.837-92.525-165.725-96.334-0.759-0.044-1.522-0.067-2.284-0.067zM527.988 598.559c-144.538 0-268.954-107.711-289.405-250.547-2.515-17.566-16.568-31.218-34.2-33.227-74.408-8.47-126.375-70.527-126.375-150.912 0-85.437 61.818-149.866 143.792-149.866h769.653c51.946 3.47 86.247 36.645 105.917 63.969 27.921 38.784 43.935 90.487 43.935 141.853 0 117.408-84.031 205.945-195.463 205.945-33.615 0-65.66-7.842-95.246-23.309-9.618-5.028-20.899-5.823-31.128-2.188s-18.48 11.365-22.77 21.336c-46.252 107.492-151.727 176.946-268.709 176.946zM1102.381 675.44c-9.906-0.001-18.387 7.516-19.383 17.581-13.744 138.753-137.807 240.441-276.564 226.711-10.704-1.064-20.269 6.766-21.329 17.485-1.062 10.718 6.766 20.268 17.485 21.329 77.586 7.685 153.514-15.302 213.808-64.727s97.731-119.371 105.415-196.954c1.062-10.718-6.766-20.268-17.485-21.329-0.652-0.065-1.303-0.096-1.947-0.096zM998.078 627.868c-9.906-0.001-18.387 7.516-19.383 17.581-4.802 48.482-28.198 92.192-65.875 123.079s-85.133 45.253-133.609 40.449c-10.712-1.058-20.269 6.766-21.329 17.485-1.062 10.718 6.766 20.268 17.485 21.329 58.841 5.834 116.446-11.606 162.183-49.098 45.734-37.491 74.132-90.549 79.962-149.399 1.062-10.718-6.766-20.268-17.485-21.329-0.653-0.066-1.304-0.098-1.948-0.098zM882.975 582.402c-9.906-0.001-18.387 7.516-19.383 17.581-6.084 61.412-61.002 106.422-122.408 100.342-10.729-1.059-20.269 6.766-21.329 17.485-1.062 10.718 6.766 20.268 17.485 21.329 82.811 8.209 156.862-52.498 165.067-135.312 1.062-10.718-6.766-20.268-17.485-21.329-0.653-0.065-1.304-0.096-1.947-0.096z" />
<glyph unicode="&#xe91f;" glyph-name="icon--yun5" horiz-adv-x="1691" d="M1378.714-64h-1073.485c-84.461 0-162.229 32.712-218.978 92.112-55.62 58.216-86.249 136.905-86.249 221.573 0 150.831 95.191 274.574 231.251 307.744 23.296 106.614 80.468 203.603 163.45 276.145 93.259 81.527 212.91 126.426 336.913 126.426 187.761 0 358.592-102.148 448.188-264.1 42.681 15.45 88.102 23.49 133.7 23.49 104.338 0 200.512-41.146 270.808-115.857 68.598-72.909 106.376-170.901 106.376-275.924 0-93.048-29.512-187.405-80.966-258.879-57.809-80.299-138.795-127.407-228.039-132.641-0.99-0.057-1.98-0.088-2.969-0.088zM731.614 858.656c-203.079 0-377.89-151.339-406.623-352.029-3.267-22.819-21.526-40.558-44.428-43.166-105.522-12.014-179.218-99.922-179.218-213.776 0-121.054 87.651-212.34 203.885-212.34h1071.914c73.818 4.88 122.463 51.885 150.331 90.595 39.318 54.618 61.869 127.393 61.869 199.669 0 165.575-118.585 290.436-275.841 290.436-47.401 0-92.593-11.060-134.322-32.874-12.496-6.533-27.152-7.562-40.44-2.843-13.286 4.721-24.007 14.766-29.581 27.719-64.991 151.024-213.185 248.608-377.547 248.608zM766.001 235.174c-8.153 0-16.21 3.674-21.527 10.663-9.038 11.878-6.734 28.834 5.143 37.872l116.185 88.401-178.415 65.73c-8.648 3.187-15.077 10.56-17.053 19.561-1.976 9.003 0.77 18.391 7.285 24.907l163.84 163.84c10.553 10.553 27.665 10.553 38.219 0 10.555-10.555 10.555-27.665 0-38.22l-133.972-133.974 185.013-68.161c9.258-3.412 15.923-11.597 17.384-21.355s-2.51-19.538-10.362-25.512l-155.395-118.235c-4.89-3.719-10.641-5.518-16.343-5.518z" />
<glyph unicode="&#xe920;" glyph-name="icon--guanli22" horiz-adv-x="1251" d="M0 14.864h832.75v-78.864h-832.75v78.864zM0 329.909h1250.142v-78.864h-1250.142v78.864zM1.314 960h1250.142v-78.864h-1250.142v78.864zM0 644.954h832.75v-78.864h-832.75v78.864z" />
<glyph unicode="&#xe921;" glyph-name="icon--tiaocha" d="M921.645-41.919l-297.396 297.395c25.109 28.602 45.301 60.785 60.132 95.969 18.464 43.799 27.794 90.325 27.734 138.286-0.061 47.996-9.524 94.576-28.125 138.446-17.962 42.363-43.644 80.418-76.334 113.106s-70.744 58.371-113.106 76.334c-43.87 18.602-90.45 28.064-138.446 28.125h-0.463c-47.953 0-94.462-9.389-138.235-27.907-42.279-17.886-80.23-43.489-112.799-76.1s-58.123-70.592-75.954-112.892c-18.462-43.8-27.794-90.325-27.733-138.286 0.061-47.996 9.524-94.576 28.125-138.446 17.962-42.362 43.644-80.417 76.334-113.106 32.688-32.688 70.743-58.37 113.106-76.334 43.869-18.602 90.45-28.064 138.446-28.125h0.462c47.953 0 94.462 9.389 138.235 27.907 39.968 16.907 76.062 40.722 107.405 70.825l296.905-296.904 21.707 21.707zM357.391 165.244h-0.423c-179.171 0.229-325.123 146.181-325.35 325.351-0.111 86.698 33.525 168.182 94.708 229.444 61.185 61.263 142.623 95.002 229.314 95.002h0.424c179.171-0.228 325.123-146.18 325.351-325.35 0.109-86.698-33.526-168.183-94.709-229.445-61.186-61.263-142.623-95.002-229.315-95.002z" />
<glyph unicode="&#xe922;" glyph-name="icon--tiaocha2" d="M1032.707-15.565l-313.061 313.061c24.701 30.022 44.817 63.3 60.007 99.335 21.012 49.844 31.629 102.783 31.561 157.346-0.070 54.601-10.837 107.597-32.002 157.514-20.435 48.195-49.651 91.485-86.833 128.668s-80.474 66.398-128.667 86.833c-49.919 21.166-102.914 31.933-157.514 32.002h-0.525c-54.556 0-107.475-10.685-157.29-31.759-48.11-20.353-91.292-49.484-128.348-86.588-37.054-37.102-66.13-80.319-86.42-128.453-21.014-49.842-31.631-102.781-31.562-157.344 0.070-54.601 10.837-107.596 32.002-157.514 20.435-48.195 49.65-91.485 86.833-128.668s80.474-66.398 128.668-86.833c49.918-21.166 102.914-31.932 157.514-32.002h0.525c54.555 0 107.475 10.684 157.29 31.758 41.315 17.478 78.984 41.449 112.272 71.365l312.136-312.136 43.415 43.414zM407.594 211.431h-0.447c-189.274 0.24-343.456 154.423-343.698 343.699-0.117 91.569 35.406 177.631 100.025 242.332 64.62 64.703 150.634 100.336 242.196 100.336h0.447c189.274-0.24 343.456-154.423 343.698-343.698 0.117-91.57-35.407-177.632-100.025-242.333-64.621-64.703-150.633-100.336-242.196-100.336z" />
<glyph unicode="&#xe923;" glyph-name="icon--yun1" horiz-adv-x="1375" d="M1134.206-64h-899.071c-65.083 0-124.952 25.147-168.576 70.808-42.921 44.925-66.559 105.8-66.559 171.411 0 60.889 20.377 118.725 57.378 162.85 34.147 40.722 80.985 67.909 133.237 77.671 16.646 90.050 63.448 172.311 132.948 233.068 74.369 65.014 169.788 100.817 268.68 100.817 155.794 0 296.971-88.179 365.777-226.516 38.194 16.403 79.785 24.998 121.57 24.998 81.67 0 156.917-32.169 211.876-90.582 53.862-57.245 83.524-134.326 83.524-217.044 0-73.727-23.308-148.388-63.948-204.84-44.741-62.146-107.086-98.585-175.551-102.604-0.428-0.026-0.856-0.038-1.285-0.038zM592.242 708.747c-180.217 0-335.349-134.315-360.851-312.428-1.415-9.879-9.318-17.56-19.235-18.689-97.509-11.101-168.281-94.965-168.281-199.412 0-113.074 82.223-198.341 191.258-198.341h898.41c123.69 7.681 197.569 139.931 197.569 263.604 0 150.36-108.131 263.747-251.523 263.747-43.043 0-84.089-10.049-121.998-29.867-5.412-2.83-11.758-3.274-17.51-1.23s-10.393 6.392-12.808 12c-57.667 134.019-189.176 220.616-335.032 220.616zM1122.093 639.905c-11.143-0.001-20.684 8.455-21.804 19.778-15.463 156.086-155.037 270.482-311.112 255.033-12.042-1.196-22.801 7.611-23.994 19.669s7.611 22.8 19.669 23.994c87.274 8.648 172.691-17.214 240.517-72.813 67.824-55.599 109.938-134.283 118.583-221.557 1.194-12.057-7.611-22.8-19.669-23.994-0.734-0.074-1.466-0.11-2.19-0.11zM1043.2 632.090c-11.143-0.001-20.684 8.455-21.804 19.778-5.402 54.538-31.72 103.709-74.104 138.453s-95.766 50.904-150.301 45.502c-12.043-1.193-22.801 7.611-23.994 19.669s7.611 22.8 19.669 23.994c66.194 6.562 130.992-13.056 182.442-55.232s83.394-101.861 89.952-168.062c1.194-12.057-7.611-22.8-19.669-23.994-0.735-0.073-1.469-0.108-2.191-0.108zM964.308 624.276c-11.143-0.001-20.684 8.455-21.804 19.778-6.843 69.085-68.628 119.71-137.699 112.877-12.046-1.19-22.801 7.611-23.994 19.669s7.611 22.8 19.669 23.994c93.151 9.235 176.457-59.054 185.687-152.215 1.194-12.057-7.611-22.8-19.669-23.994-0.735-0.073-1.467-0.108-2.19-0.108z" />
<glyph unicode="&#xe924;" glyph-name="icon--yun2" horiz-adv-x="1219" d="M992.673-64h-770.871c-61.373 0-117.89 23.779-159.142 66.956-40.408 42.293-62.661 99.442-62.661 160.92 0 108.971 68.437 198.475 166.473 223.141 17.067 76.476 58.258 146.020 117.855 198.119 67.445 58.962 153.98 91.433 243.66 91.433 135.038 0 257.969-73.057 323.052-189.057 30.321 10.708 62.5 16.273 94.803 16.273 75.653 0 145.394-29.839 196.372-84.021 49.72-52.843 77.101-123.847 77.101-199.933 0-67.354-21.371-135.669-58.634-187.431-41.98-58.313-100.837-92.525-165.725-96.334-0.759-0.044-1.522-0.067-2.284-0.067zM527.988 598.559c-144.538 0-268.954-107.711-289.405-250.547-2.515-17.566-16.568-31.218-34.2-33.227-74.408-8.47-126.375-70.527-126.375-150.912 0-85.437 61.818-149.866 143.792-149.866h769.653c51.946 3.47 86.247 36.645 105.917 63.969 27.921 38.784 43.935 90.487 43.935 141.853 0 117.408-84.031 205.945-195.463 205.945-33.615 0-65.66-7.842-95.246-23.309-9.618-5.028-20.899-5.823-31.128-2.188s-18.48 11.365-22.77 21.336c-46.252 107.492-151.727 176.946-268.709 176.946zM1102.381 675.44c-9.906-0.001-18.387 7.516-19.383 17.581-13.744 138.753-137.807 240.441-276.564 226.711-10.704-1.064-20.269 6.766-21.329 17.485-1.062 10.718 6.766 20.268 17.485 21.329 77.586 7.685 153.514-15.302 213.808-64.727s97.731-119.371 105.415-196.954c1.062-10.718-6.766-20.268-17.485-21.329-0.652-0.065-1.303-0.096-1.947-0.096zM998.078 627.868c-9.906-0.001-18.387 7.516-19.383 17.581-4.802 48.482-28.198 92.192-65.875 123.079s-85.133 45.253-133.609 40.449c-10.712-1.058-20.269 6.766-21.329 17.485-1.062 10.718 6.766 20.268 17.485 21.329 58.841 5.834 116.446-11.606 162.183-49.098 45.734-37.491 74.132-90.549 79.962-149.399 1.062-10.718-6.766-20.268-17.485-21.329-0.653-0.066-1.304-0.098-1.948-0.098zM882.975 582.402c-9.906-0.001-18.387 7.516-19.383 17.581-6.084 61.412-61.002 106.422-122.408 100.342-10.729-1.059-20.269 6.766-21.329 17.485-1.062 10.718 6.766 20.268 17.485 21.329 82.811 8.209 156.862-52.498 165.067-135.312 1.062-10.718-6.766-20.268-17.485-21.329-0.653-0.065-1.304-0.096-1.947-0.096z" />
<glyph unicode="&#xe925;" glyph-name="icon--yun42" horiz-adv-x="1691" d="M1378.714-64h-1073.485c-84.461 0-162.229 32.712-218.978 92.112-55.62 58.216-86.249 136.905-86.249 221.573 0 150.831 95.191 274.574 231.251 307.744 23.296 106.614 80.468 203.603 163.45 276.145 93.259 81.527 212.91 126.426 336.913 126.426 187.761 0 358.592-102.148 448.188-264.1 42.681 15.45 88.102 23.49 133.7 23.49 104.338 0 200.512-41.146 270.808-115.857 68.598-72.909 106.376-170.901 106.376-275.924 0-93.048-29.512-187.405-80.966-258.879-57.809-80.299-138.795-127.407-228.039-132.641-0.99-0.057-1.98-0.088-2.969-0.088zM731.614 858.656c-203.079 0-377.89-151.339-406.623-352.029-3.267-22.819-21.526-40.558-44.428-43.166-105.522-12.014-179.218-99.922-179.218-213.776 0-121.054 87.651-212.34 203.885-212.34h1071.914c73.818 4.88 122.463 51.885 150.331 90.595 39.318 54.618 61.869 127.393 61.869 199.669 0 165.575-118.585 290.436-275.841 290.436-47.401 0-92.593-11.060-134.322-32.874-12.496-6.533-27.152-7.562-40.44-2.843-13.286 4.721-24.007 14.766-29.581 27.719-64.991 151.024-213.185 248.608-377.547 248.608zM766.001 235.174c-8.153 0-16.21 3.674-21.527 10.663-9.038 11.878-6.734 28.834 5.143 37.872l116.185 88.401-178.415 65.73c-8.648 3.187-15.077 10.56-17.053 19.561-1.976 9.003 0.77 18.391 7.285 24.907l163.84 163.84c10.553 10.553 27.665 10.553 38.219 0 10.555-10.555 10.555-27.665 0-38.22l-133.972-133.974 185.013-68.161c9.258-3.412 15.923-11.597 17.384-21.355s-2.51-19.538-10.362-25.512l-155.395-118.235c-4.89-3.719-10.641-5.518-16.343-5.518z" />
<glyph unicode="&#xe926;" glyph-name="icon--yun52" horiz-adv-x="1691" d="M1378.714-64h-1073.485c-84.461 0-162.229 32.712-218.978 92.112-55.62 58.216-86.249 136.905-86.249 221.573 0 150.831 95.191 274.574 231.251 307.744 23.296 106.614 80.468 203.603 163.45 276.145 93.259 81.527 212.91 126.426 336.913 126.426 187.761 0 358.592-102.148 448.188-264.1 42.681 15.45 88.102 23.49 133.7 23.49 104.338 0 200.512-41.146 270.808-115.857 68.598-72.909 106.376-170.901 106.376-275.924 0-93.048-29.512-187.405-80.966-258.879-57.809-80.299-138.795-127.407-228.039-132.641-0.99-0.057-1.98-0.088-2.969-0.088zM731.614 858.656c-203.079 0-377.89-151.339-406.623-352.029-3.267-22.819-21.526-40.558-44.428-43.166-105.522-12.014-179.218-99.922-179.218-213.776 0-121.054 87.651-212.34 203.885-212.34h1071.914c73.818 4.88 122.463 51.885 150.331 90.595 39.318 54.618 61.869 127.393 61.869 199.669 0 165.575-118.585 290.436-275.841 290.436-47.401 0-92.593-11.060-134.322-32.874-12.496-6.533-27.152-7.562-40.44-2.843-13.286 4.721-24.007 14.766-29.581 27.719-64.991 151.024-213.185 248.608-377.547 248.608zM766.001 235.174c-8.153 0-16.21 3.674-21.527 10.663-9.038 11.878-6.734 28.834 5.143 37.872l116.185 88.401-178.415 65.73c-8.648 3.187-15.077 10.56-17.053 19.561-1.976 9.003 0.77 18.391 7.285 24.907l163.84 163.84c10.553 10.553 27.665 10.553 38.219 0 10.555-10.555 10.555-27.665 0-38.22l-133.972-133.974 185.013-68.161c9.258-3.412 15.923-11.597 17.384-21.355s-2.51-19.538-10.362-25.512l-155.395-118.235c-4.89-3.719-10.641-5.518-16.343-5.518z" />
<glyph unicode="&#xe927;" glyph-name="icon--jiance4" horiz-adv-x="1170" d="M1078.067 734.496c-50.544 0-91.663-41.803-91.663-93.187 0-11.578 2.104-22.662 5.917-32.898l-252.077-240.898c-13.852 8.556-30.099 13.488-47.458 13.488-8.3 0-16.412-1.122-24.207-3.279l-78.32 101.337c5.829 12.389 8.917 26.041 8.917 40.167 0 51.383-41.12 93.187-91.663 93.187s-91.665-41.803-91.665-93.187c0-4.060 0.264-8.080 0.768-12.045l-202.013-162.654c-13.54 8.031-29.263 12.657-46.037 12.657-50.544 0-91.663-41.804-91.663-93.187s41.12-93.185 91.663-93.185 91.663 41.803 91.663 93.185c0 8.633-1.186 16.987-3.357 24.926l194.533 156.632c15.993-12.589 35.822-19.517 56.106-19.517 10.821 0 21.347 1.891 31.22 5.517l74.808-96.795c-8.058-14.027-12.418-30.12-12.418-46.945 0-51.383 41.121-93.187 91.663-93.187s91.663 41.804 91.663 93.187c0 7.837-0.968 15.447-2.768 22.725l257.732 246.303c11.754-5.582 24.847-8.719 38.654-8.719 50.544 0 91.663 41.803 91.663 93.187s-41.12 93.185-91.662 93.185zM168.566 240.629c-12.046 0-21.845 10.483-21.845 23.367s9.8 23.368 21.845 23.368 21.845-10.483 21.845-23.368c0.001-12.884-9.799-23.367-21.845-23.367zM494.189 500.713c-0.001 0.001-0.002 0.001-0.002 0.002-5.414 4.478-8.519 11.224-8.519 18.509 0 12.885 9.8 23.368 21.846 23.368s21.845-10.483 21.845-23.368c0-6.415-2.388-12.401-6.724-16.852-4.091-4.202-9.462-6.515-15.123-6.515-6.158-0.001-10.645 2.64-13.324 4.856zM692.786 264.447c-12.046 0-21.845 10.483-21.845 23.368 0 7.085 2.909 13.604 8.013 18.074 0.218 0.161 0.445 0.3 0.66 0.467 0.475 0.368 0.938 0.745 1.388 1.131 2.675 1.842 6.641 3.696 11.784 3.696 12.046 0 21.845-10.483 21.845-23.367 0.001-12.886-9.799-23.368-21.845-23.368zM1078.067 617.942c-12.046 0-21.845 10.482-21.845 23.368s9.8 23.368 21.845 23.368 21.845-10.482 21.845-23.368-9.8-23.368-21.845-23.368zM1078.692-64h-1078.692v1024h46.546v-977.454h1032.147z" />
<glyph unicode="&#xe928;" glyph-name="icon--jiance32" horiz-adv-x="1079" d="M942.641 667.579c-35.069 0-63.598-29.071-63.598-64.803 0-10.113 2.289-19.69 6.36-28.228l-209.092-199.82c-10.685 8.289-24.007 13.222-38.442 13.222-7.761 0-15.289-1.404-22.354-4.108l-69.285 89.647c5.655 9.822 8.679 21.033 8.679 32.712 0 35.731-28.531 64.802-63.598 64.802s-63.598-29.071-63.598-64.802c0-4.488 0.47-8.903 1.342-13.202l-168.909-136c-10.424 7.611-23.178 12.11-36.952 12.11-35.069 0-63.598-29.071-63.598-64.803s28.531-64.802 63.598-64.802 63.598 29.070 63.598 64.802c0 8.033-1.453 15.725-4.087 22.831l164.476 132.431c1.306-1.28 2.65-2.526 4.073-3.703 0.001-0.001 0.002-0.001 0.004-0.002 11.28-9.327 25.504-14.465 40.055-14.465 9.696 0 19.053 2.198 27.534 6.353l67.217-86.972c-7.612-10.835-11.79-23.881-11.79-37.632 0-35.731 28.529-64.802 63.597-64.802s63.598 29.070 63.598 64.802c0 7.232-1.186 14.184-3.342 20.685l212.441 203.020c9.424-5.633 20.381-8.879 32.075-8.879 35.069 0 63.598 29.071 63.598 64.802-0.002 35.734-28.532 64.804-63.6 64.804zM223.194 276.913c-14.442 0-26.192 12.289-26.192 27.396s11.749 27.397 26.192 27.397c14.441 0 26.192-12.29 26.192-27.397s-11.75-27.396-26.192-27.396zM475.092 484.693c0 0 0 0 0 0-6.338 5.242-9.972 13.081-9.972 21.51 0 15.106 11.749 27.396 26.192 27.396s26.192-12.289 26.192-27.396c0-7.411-2.786-14.352-7.845-19.547 0 0 0 0 0 0s0 0 0 0c-4.928-5.062-11.444-7.848-18.347-7.848-5.953-0.001-11.562 2.034-16.219 5.886zM637.87 295.754c-14.441 0-26.19 12.289-26.19 27.396 0 8.369 3.551 16.084 9.762 21.321 0.186 0.133 0.378 0.255 0.56 0.396 0.229 0.178 0.434 0.374 0.652 0.559 4.455 3.341 9.695 5.12 15.216 5.12 14.441 0 26.192-12.29 26.192-27.397s-11.75-27.394-26.192-27.394zM942.641 575.38c-14.441 0-26.192 12.289-26.192 27.396s11.75 27.397 26.192 27.397 26.192-12.29 26.192-27.397-11.749-27.396-26.192-27.396zM1078.942-64h-1078.942v1024h37.407v-986.593h1041.535z" />
<glyph unicode="&#xe929;" glyph-name="icon--jiance5" horiz-adv-x="2051" d="M1908.053 960c-78.798 0-142.906-65.432-142.906-145.858 0-26.153 6.813-50.696 18.67-71.944l-528.623-505.183c-25.258 22.947-58.498 36.925-94.891 36.925-20.709 0-40.682-4.451-59.049-12.987l-181.724 235.133c15.667 23.807 24.099 51.806 24.099 81.113 0 80.426-64.105 145.858-142.903 145.858s-142.903-65.432-142.903-145.858c0-12.821 1.673-25.385 4.803-37.463l-428.909-345.341c-24.707 20.808-56.355 33.32-90.813 33.32-78.798 0-142.903-65.432-142.903-145.858s64.105-145.858 142.903-145.858 142.903 65.432 142.903 145.858c0 21.424-4.586 41.765-12.75 60.107l420.577 338.639c5.216-6.006 10.946-11.626 17.178-16.779 25.33-20.947 57.262-32.483 89.914-32.483 25.381 0 49.716 6.737 71.121 19.315l177.855-230.13c-20.789-25.788-32.302-58.142-32.302-92.445 0-80.426 64.105-145.858 142.906-145.858 78.796 0 142.903 65.432 142.903 145.858 0 19.201-3.689 37.529-10.324 54.332l534.865 511.148c22.904-15.941 50.553-25.279 80.305-25.279 78.796 0 142.903 65.432 142.903 145.858s-64.11 145.858-142.906 145.858zM142.903 1.51c-42.676 0-77.394 36.043-77.394 80.348s34.718 80.348 77.394 80.348 77.394-36.043 77.394-80.348-34.718-80.348-77.394-80.348zM752.56 514.308c-18.576 15.362-29.23 38.284-29.23 62.891 0 44.305 34.718 80.348 77.394 80.348s77.394-36.043 77.394-80.348c0-21.626-8.158-41.914-22.971-57.125-14.586-14.975-33.912-23.225-54.422-23.225-17.698 0.002-34.354 6.037-48.164 17.458zM1160.303 47.735c-42.676 0-77.396 36.043-77.396 80.348 0 24.607 10.563 47.314 29.015 62.672 0.473 0.328 0.952 0.643 1.413 0.999 0.694 0.536 1.337 1.114 1.976 1.693 13.167 9.802 28.671 14.981 44.991 14.981 42.676 0 77.394-36.043 77.394-80.348s-34.716-80.346-77.392-80.346zM1908.053 733.795c-42.676 0-77.396 36.043-77.396 80.348s34.72 80.348 77.396 80.348 77.394-36.043 77.394-80.348-34.718-80.348-77.394-80.348z" />
<glyph unicode="&#xe92a;" glyph-name="huodong" d="M962.559 457.217v112.564h-694.81v137.831l-268.772-250.186zM-1.024 260.592v-112.564h694.811v-137.832l268.772 250.186z" />
<glyph unicode="&#xe92b;" glyph-name="niwei" d="M459.274 603.703h-240.933c-14.785 0-26.882 12.098-26.882 26.882v2.061c0 14.785 12.097 26.882 26.882 26.882h240.933c14.785 0 26.882-12.098 26.882-26.882v-2.061c0-14.786-12.097-26.882-26.882-26.882zM800.018 603.703h-240.932c-14.785 0-26.882 12.098-26.882 26.882v2.061c0 14.785 12.097 26.882 26.882 26.882h240.933c14.785 0 26.882-12.098 26.882-26.882v-2.061c-0.001-14.786-12.098-26.882-26.883-26.882zM433.001 383.7h-160.758c-12.351 0-22.457 10.106-22.457 22.457v10.909c0 12.351 10.106 22.457 22.457 22.457h160.758c12.351 0 22.457-10.106 22.457-22.457v-10.909c0.001-12.351-10.105-22.457-22.457-22.457zM742.024 383.7h-160.758c-12.351 0-22.457 10.106-22.457 22.457v10.909c0 12.351 10.106 22.457 22.457 22.457h160.758c12.351 0 22.457-10.106 22.457-22.457v-10.909c0-12.351-10.106-22.457-22.457-22.457zM588.796 487.052h-160.758c-12.351 0-22.457 10.106-22.457 22.457v10.909c0 12.351 10.106 22.457 22.457 22.457h160.758c12.351 0 22.457-10.106 22.457-22.457v-10.909c0.001-12.352-10.105-22.457-22.457-22.457zM726.373 245.090h-443.074c-15.774 0-29.551 10.671-33.495 25.945l-120.964 468.436c-3.944 15.274-17.721 25.945-33.495 25.945v0c-19.106 0-34.594-15.488-34.594-34.594v-626.114c0-19.106 15.488-34.594 34.594-34.594h829.046c19.106 0 34.594 15.488 34.594 34.594v626.113c0 19.106-15.488 34.594-34.594 34.594h-10.063c-15.774 0-29.551-10.671-33.495-25.945l-120.964-468.436c-3.945-15.273-17.722-25.944-33.496-25.944z" />
<glyph unicode="&#xe92c;" glyph-name="qp-nsl2-60" d="M511.275 635.153l-70.188-54.015-106.48 30.079-45.054-70.157h336.064l-51.506 89.583zM553.454 666.575l-51.034 88.763-27.987-29.645 40.774-56.373zM482.288 656.202l-39.829 55.066-26.352 26.856-62.090-96.684 79.798-22.542zM885.755 586.736c0 205.583-166.658 372.241-372.241 372.241s-372.241-166.658-372.241-372.241c0-47.648 8.966-93.198 25.281-135.073h-0.874l2.872-4.991c12.807-31.509 29.798-60.864 50.294-87.379l294.667-419.198 294.667 419.197c20.497 26.516 37.489 55.871 50.295 87.38l2.872 4.991h-0.874c16.314 41.876 25.28 87.425 25.28 135.073zM612.635 775.351l1.325-5.003c10.749-40.58 49.412-74.558 98.501-86.562l4.979-1.218-8.354-34.911-4.979 1.218c-31.496 7.701-59.916 22.806-82.189 43.681-21.005 19.685-35.625 43.373-42.282 68.502l-1.324 5.003 34.323 9.291zM784.4 553.298l-1.518 1.283v-28.207h-0.010v-19.673h-556.219l183.814 286.228 40.868-41.649 57.831 61.257 156.086-271.476h29.924v18.733l-14.449 16.657 55.162 47.853 63.299-53.511-14.788-17.495zM718.083 574.703v-33.642h41.893v32.885l-23.894 20.199-22.412-19.442z" />
<glyph unicode="&#xe92d;" glyph-name="map-shuiwei" d="M459.443 617.406h108.143l6.446 26.268h-121.035zM570.473 705.072c-3.861 0-4.686-0.522-8.644-3.029-5.898-3.735-14.812-9.381-30.545-9.381s-24.646 5.646-30.545 9.381c-3.958 2.507-4.782 3.028-8.643 3.028s-4.685-0.522-8.643-3.028c-5.898-3.736-14.811-9.381-30.545-9.381-4.652 0-8.694 0.501-12.252 1.293l2.294-9.349h141.124l3.148 12.827c-3.26 1.539-5.896 3.208-8.108 4.609-3.958 2.507-4.781 3.029-8.643 3.029zM885.755 586.736c0 205.583-166.658 372.241-372.241 372.241s-372.241-166.658-372.241-372.241c0-47.648 8.966-93.198 25.281-135.073h-0.874l2.872-4.991c12.807-31.509 29.798-60.864 50.294-87.379l294.667-419.198 294.667 419.197c20.497 26.516 37.489 55.871 50.295 87.38l2.872 4.991h-0.874c16.314 41.876 25.28 87.425 25.28 135.073zM599.688 576.474h-172.347l-53.33 217.331 39.753 9.754 14.584-59.434c7.18-1.977 12.165-5.124 15.92-7.502 3.958-2.507 4.782-3.028 8.643-3.028s4.685 0.522 8.643 3.029c5.898 3.735 14.811 9.381 30.544 9.381s24.645-5.646 30.544-9.381c3.958-2.507 4.782-3.029 8.643-3.029s4.685 0.522 8.643 3.029c5.898 3.735 14.812 9.381 30.546 9.381 12.807 0 21.094-3.74 26.915-7.147l15.877 64.702 39.753-9.754-53.33-217.332z" />
<glyph unicode="&#xe92e;" glyph-name="calendar3" d="M938.688 864h-138.688v64c0 17.696-14.304 32-32 32s-32-14.304-32-32v-64h-192v64c0 17.696-14.336 32-32 32s-32-14.304-32-32v-64h-192v64c0 17.696-14.336 32-32 32s-32-14.304-32-32v-64h-138.656c-47.136 0-85.344-38.176-85.344-85.312v-757.344c0-47.136 38.208-85.344 85.344-85.344h853.344c47.136 0 85.312 38.208 85.312 85.344v757.344c0 47.136-38.176 85.312-85.312 85.312zM960 21.344c0-11.776-9.568-21.344-21.312-21.344h-853.344c-11.776 0-21.344 9.568-21.344 21.344v757.344c0 11.744 9.568 21.312 21.344 21.312h138.656v-64c0-17.696 14.336-32 32-32s32 14.304 32 32v64h192v-64c0-17.696 14.336-32 32-32s32 14.304 32 32v64h192v-64c0-17.696 14.304-32 32-32s32 14.304 32 32v64h138.688c11.744 0 21.312-9.568 21.312-21.312v-757.344zM224 576h128v-96h-128zM224 416h128v-96h-128zM224 256h128v-96h-128zM448 256h128v-96h-128zM448 416h128v-96h-128zM448 576h128v-96h-128zM672 256h128v-96h-128zM672 416h128v-96h-128zM672 576h128v-96h-128z" />
<glyph unicode="&#xe92f;" glyph-name="laba3" d="M751.582 702.225c-12.367 0-23.968-6.106-34.243-17.050-1.795-1.912-3.89-3.538-6.248-4.729-94.824-47.903-198.329-78.534-307.783-91.056-0.849-0.097-1.705-0.146-2.56-0.149l-54.602-0.178v-140.039h61.727v0.283c107.143-6.861 210.385-30.691 306.892-70.854l0.152 0.35c10.859-12.634 23.317-19.75 36.665-19.75 43.473 0 77.527 75.37 77.527 171.586s-34.054 171.586-77.527 171.586zM751.582 369.287c-36.344 0-67.048 73.891-67.048 161.353 0 61.622 15.243 116.504 36.96 143.557 0.071 0.037 0.142 0.072 0.214 0.108l-0.049 0.091c9.065 11.217 19.25 17.597 29.924 17.597 36.345 0 67.049-73.891 67.049-161.353s-30.703-161.353-67.049-161.353zM325.717 588.997l-16.571-0.054c-28.484-0.093-51.524-22.672-51.524-50.493v-38.933c0-27.887 23.145-50.494 51.697-50.494h16.4v139.974zM387.787 401.272l-66.213 31.358 35.055-162.316 86.152 32.539z" />
<glyph unicode="&#xe930;" glyph-name="liusu" d="M935.734 274.251l-14.435 9.029c17.751 43.524 34.388 101.243 34.388 164.723 0 59.539-11.673 117.327-34.696 171.759-22.225 52.547-54.031 99.726-94.533 140.229s-87.683 72.308-140.229 94.533c-54.431 23.021-112.219 34.695-171.759 34.695s-117.327-11.674-171.759-34.696c-14.739-6.234-29.038-13.249-42.904-20.971-25.011-11.679-48.322-27.183-69.090-46.2-2.383-2.182-4.521-4.529-6.442-6.996-7.459-6.527-14.734-13.305-21.794-20.365-40.502-40.502-72.308-87.682-94.533-140.229-23.020-54.433-34.694-112.221-34.694-171.76 0-59.23 11.556-116.742 34.349-170.936 22.003-52.319 53.51-99.357 93.642-139.808 40.117-40.435 86.886-72.306 139.007-94.726 53.959-23.212 111.305-35.232 170.445-35.729 0.161-0.001 0.321-0.002 0.483-0.002 30.862 0 56.010 24.888 56.27 55.809 0.261 31.083-24.724 56.492-55.807 56.753-179.66 1.509-325.825 148.936-325.825 328.641 0 122.096 66.93 228.847 166.023 285.512 19.955 8.594 41.615 13.129 63.808 13.129 88.957 0 161.329-72.372 161.329-161.329 0-26.961-6.51-52.779-18.788-75.784-17.865 7.534-38.628 5.402-54.713-6.164-18.553-13.341-27.197-36.574-21.878-58.797l73.024-305.077c3.497-14.606 12.685-27.209 25.522-35.004 8.881-5.394 18.997-8.176 29.215-8.175 4.551 0 9.125 0.553 13.615 1.672l296.53 73.941c21.91 5.463 38.434 23.493 41.971 45.795s-6.598 44.558-25.743 56.532zM650.869 220.948l-40.994 171.263c23.973 24.087 43.029 52.019 56.686 83.146 15.248 34.758 22.98 71.752 22.98 109.957 0 62.622-20.891 122.025-59.347 170.284 124.289-46.914 212.929-167.090 212.929-307.597 0-57.766-19.705-110.818-36.234-145.152-1.986-4.125-3.41-8.374-4.329-12.661-6.31-10.418-8.854-22.089-7.983-33.406l-143.709-35.834z" />
<glyph unicode="&#xe931;" glyph-name="TDR" d="M898.038 899.315h-773.582l306.543-355.436h-305.52v-61.398h319.769v-258.867h-124.838v-96.185h124.838v-126.953h131.999v126.953h125.861v96.185h-125.861v258.867h318.723v61.398h-304.475z" />
<glyph unicode="&#xe932;" glyph-name="shentou" d="M450.41 388.431v499.497c0 39.076 31.971 71.048 71.048 71.048v0c39.077 0 71.048-31.971 71.048-71.048v-499.497c0-39.076-31.971-71.048-71.048-71.048v0c-39.076 0-71.048 31.971-71.048 71.048zM829.654 638.512v-384.635h-636.336v384.635h-132.315v-568.4h900.965v568.4z" />
<glyph unicode="&#xe933;" glyph-name="qp-hp2-60" d="M508.513 633.481l-69.699-54.033-105.67 30.068-44.705-70.123h333.409l-51.136 89.591zM550.202 664.917l-50.583 88.621-27.655-29.507 40.487-56.385zM479.576 654.523l-39.583 55.126-25.998 26.688-61.573-96.581 79.078-22.501zM714.205 573.036v-33.642h44.755v32.886l-23.893 20.198-22.412-19.442zM885.755 586.736c0 205.583-166.658 372.241-372.241 372.241s-372.241-166.658-372.241-372.241c0-47.648 8.966-93.198 25.281-135.073h-0.874l2.872-4.991c12.807-31.509 29.798-60.864 50.294-87.379l294.667-419.198 294.667 419.197c20.497 26.516 37.489 55.871 50.295 87.38l2.872 4.991h-0.874c16.314 41.876 25.28 87.425 25.28 135.073zM628.588 742.85l70.533-115.165-39.199-24.007-70.531 115.166 39.197 24.006zM783.384 551.631l-1.518 1.283v-13.521h0.060v-34.36h-556.142l182.556 286.348 40.598-41.674 57.446 61.294 155.027-271.608h29.888v22.033l-11.586 13.356 55.162 47.853 63.299-53.511-14.79-17.493z" />
<glyph unicode="&#xe934;" glyph-name="hanshui" d="M510.724 146.433c90.588 0 164.025 73.437 164.025 164.025s-164.025 363.547-164.025 363.547-164.025-272.958-164.025-363.546 73.437-164.026 164.025-164.026zM817.712 895.886h-613.976c-43.227 0-78.268-35.042-78.268-78.268v-739.836c0-43.225 35.042-78.268 78.268-78.268h613.976c43.227 0 78.268 35.042 78.268 78.268v739.836c0.001 43.227-35.041 78.268-78.268 78.268zM803.883 91.612h-586.317v712.176h586.317v-712.176z" />
<glyph unicode="&#xe935;" glyph-name="qp-xp2-60" d="M480.903 655.195l-39.877 55.053-26.424 26.889-62.192-96.704 79.941-22.55zM552.176 665.563l-51.124 88.79-28.054-29.672 40.831-56.37zM509.9 634.145l-70.284-54.012-106.642 30.081-45.124-70.163h336.592l-51.58 89.581zM715.21 573.693v-33.642h43.611v32.885l-23.894 20.199-22.412-19.442zM885.755 586.736c0 205.583-166.658 372.241-372.241 372.241s-372.241-166.658-372.241-372.241c0-47.648 8.966-93.198 25.281-135.073h-0.874l2.872-4.991c12.807-31.509 29.798-60.864 50.294-87.379l294.667-419.198 294.667 419.197c20.497 26.516 37.489 55.871 50.295 87.38l2.872 4.991h-0.874c16.314 41.876 25.28 87.425 25.28 135.073zM783.245 552.288l-1.518 1.283v-28.207h-0.010v-19.673h-556.815l184.064 286.203 40.922-41.643 57.908 61.249 156.296-271.449h28.213v20.713l-12.732 14.677 55.162 47.853 63.299-53.511-14.789-17.494z" />
<glyph unicode="&#xe936;" glyph-name="qp-bt3-60" d="M479.702 629.079l-40.549 55.184-25.598 26.47-61.55-97.245 78.355-21.788zM548.521 639.656l-50.018 88.267-27.263-29.299 41.469-56.438zM508.799 608.017l-71.252-53.979-104.736 29.124-43.831-69.25h330.796l-50.922 89.862zM886.529 586.736c0 205.583-166.658 372.241-372.241 372.241s-372.241-166.658-372.241-372.241c0-47.648 8.966-93.198 25.281-135.073h-0.874l2.872-4.991c12.807-31.509 29.798-60.864 50.294-87.379l294.667-419.198 294.667 419.197c20.497 26.516 37.489 55.871 50.295 87.38l2.872 4.991h-0.875c16.315 41.876 25.281 87.425 25.281 135.073zM678.793 746.736l16.658 30.461 16.658-30.461 30.461-16.659-30.461-16.659-16.658-30.461-16.658 30.461-30.463 16.659 30.463 16.659zM735.729 630.614l-29.732-16.26-16.26-29.734-16.261 29.733-29.733 16.261 29.733 16.26 16.261 29.733 16.26-29.733 29.732-16.26zM585.95 812.364l44.815 21.182-6.343-49.162 21.181-44.816-49.161 6.343-44.816-21.182 6.343 49.162-21.183 44.816 49.164-6.343zM797.81 513.911v-34.36h-571.242l181.317 286.467 40.33-41.701 57.068 61.332 153.986-271.739h35.865v22.034l-11.586 13.355 55.162 47.853 63.299-53.511-14.789-17.493-1.519 1.283v-13.521h12.11zM716.49 547.553h1.55v-33.642h44.755v32.886l-23.894 20.198z" />
<glyph unicode="&#xe937;" glyph-name="xiepo-60" d="M1024.22 243.379l-113.11 95.619-98.571-85.507 22.75-26.226v-37.013h-50.414l-279.288 485.060-103.477-109.447-73.124 74.413-328.909-511.425h994.987v35.155h0.018v50.405l2.712-2.293 26.426 31.26zM584.889 414.533l-68.523 4.912-72.962 100.728 50.13 53.022 91.355-158.662zM339.056 542.43l47.216-48.048 71.258-98.377-86.759-66.672-142.849 40.295 111.134 172.803zM112.563 190.251l80.633 125.378 190.56-53.752 125.592 96.514 112.509-8.063 92.17-160.077h-601.466zM954.149 190.251h-77.928v60.116h-4.818l40.050 34.741 42.696-36.093v-58.764z" />
<glyph unicode="&#xe938;" glyph-name="xiepo-30" d="M1017.846 228.214l-109.764 92.791-95.262-82.637 20.116-23.19 2.352 2.039v-48.457h-64.601l-279.168 477.97-102.7-107.085-72.558 72.789-316.149-484.606h986.764v24.922h0.019v61.43l11.133-9.411 19.818 23.445zM593.089 391.671l-94.338 6.665-81.876 111.43 66.648 69.494 109.565-187.588zM322.938 547.757l57.931-58.116 78.56-106.918-100.246-75.944-163.749 45.534 127.504 195.443zM75.688 168.761l96.286 147.591 195.772-54.439 126.349 95.718 123.994-8.761 105.197-180.11h-647.597zM956.196 168.761h-90.208v70.349h-5.461l47.814 41.478 47.856-40.455v-71.372z" />
<glyph unicode="&#xe939;" glyph-name="nsl-60" d="M1024.22 245.425l-113.11 95.619-98.571-85.507 25.82-29.765v-33.474h-53.471l-278.913 485.108-103.341-109.461-73.028 74.423-328.462-511.468h993.921v35.155h0.018v50.405l2.712-2.293 26.425 31.26zM585.112 416.582l-68.347 4.906-72.859 100.733 50.012 52.973 91.194-158.612zM339.683 544.434l47.089-47.989 71.171-98.398-86.618-66.66-142.593 40.28 110.95 172.767zM113.542 192.297l80.51 125.366 190.272-53.748 125.419 96.521 112.283-8.060 92.038-160.080h-600.522zM954.149 192.297h-74.858v60.117h-7.887l40.049 34.74 42.696-36.093v-58.764zM711.835 410.348c45.692-42.363 103.967-73.010 168.524-88.627l19.249 79.57c-118.567 28.681-179.511 109.352-195.676 169.716l-79.079-21.173c13.711-51.207 43.788-99.441 86.981-139.487z" />
<glyph unicode="&#xe93a;" glyph-name="shui-yali" d="M511.979 891.546c-245.98 0-445.387-199.407-445.387-445.387s199.407-445.387 445.387-445.387c245.98 0 445.387 199.407 445.387 445.387s-199.407 445.387-445.387 445.387zM509.18 448c-281.888-149.871-350.141-0.73-350.468-0.008 0.236 47.084 9.541 92.717 27.703 135.656 17.789 42.059 43.276 79.851 75.75 112.325 32.476 32.476 70.267 57.961 112.325 75.75 43.496 18.397 89.754 27.725 137.488 27.725s93.992-9.328 137.488-27.725c42.059-17.789 79.851-43.276 112.325-75.75 32.476-32.475 57.961-70.266 75.75-112.325 18.397-43.496 27.725-89.753 27.725-137.488 0-5.801-0.143-11.58-0.419-17.336-9.142 6.076-176.588 114.39-355.67 19.177z" />
<glyph unicode="&#xe93b;" glyph-name="ship" d="M807.182 223.686c-43.78 28.156-91.031 49.718-140.396 64.307 116.191 57.596 196.083 177.389 196.083 315.862 0 194.598-157.753 352.352-352.352 352.352s-352.352-157.753-352.352-352.352c0-138.706 80.161-258.672 196.671-316.155-48.142-14.32-94.273-35.263-137.099-62.496-26.229-16.679-33.972-51.463-17.293-77.692s51.464-33.974 77.693-17.293c69.598 44.256 150.215 67.648 233.136 67.648 83.712 0 164.98-23.81 235.022-68.854 9.421-6.058 19.965-8.952 30.39-8.951 18.508 0.002 36.635 9.123 47.391 25.846 16.813 26.142 9.25 60.967-16.895 77.779zM270.73 603.854c0 64.050 24.942 124.266 70.233 169.556 45.289 45.291 105.506 70.233 169.556 70.233s124.266-24.942 169.556-70.233c45.291-45.289 70.233-105.506 70.233-169.556s-24.942-124.266-70.233-169.556c-45.289-45.291-105.506-70.233-169.556-70.233s-124.266 24.942-169.556 70.233c-45.291 45.291-70.233 105.506-70.233 169.556zM614.206 603.854c0-57.266-46.423-103.689-103.689-103.689s-103.689 46.423-103.689 103.689c0 57.266 46.423 103.689 103.689 103.689s103.689-46.423 103.689-103.689z" />
<glyph unicode="&#xe93c;" glyph-name="quanshui" d="M-3.49 511.060l-65.908 87.1 377.357 217.725 100.391-178.107 195.876 131.983 142.875-157.366 232.793 162.051 157.939-171.46-93.159-65.431-83.334 90.466-233.45-162.51-144.045 158.653-218.202-147.026-105.017 186.311-264.118-152.389zM-3.909 121.716l-65.49 87.1 374.96 217.724 99.754-178.107 194.631 131.983 141.966-157.366 231.313 162.051 156.935-171.46-92.566-65.431-82.804 90.466-231.968-162.51-143.129 158.653-216.815-147.026-104.349 186.312-262.439-152.389z" />
<glyph unicode="&#xe93d;" glyph-name="lief" d="M591.429 477.882h364.815c-16.269 231.175-208.952 413.664-444.265 413.664-218.374 0-400.034-157.161-438.060-364.546h517.511v-49.119zM432.528 414.437h-364.816c16.27-231.175 208.952-413.664 444.265-413.664 218.374 0 400.034 157.161 438.060 364.546h-517.509v49.119z" />
<glyph unicode="&#xe93e;" glyph-name="nsl-30" d="M1018.758 229.238l-109.764 92.791-95.262-82.637 20.116-23.19 2.351 2.038v-48.456h-64.6l-279.168 477.97-102.701-107.084-72.558 72.789-316.148-484.607h986.765v24.922h0.019v61.43l11.133-9.411 19.817 23.445zM594.001 392.694l-94.338 6.665-81.876 111.43 66.649 69.493 109.564-187.587zM323.849 548.78l57.932-58.118 78.559-106.917-100.246-75.944-163.749 45.534 127.504 195.444zM76.599 169.785l96.286 147.591 195.772-54.439 126.348 95.718 123.995-8.761 105.198-180.11h-647.598zM957.107 169.785h-90.209v70.349h-5.46l47.814 41.478 47.856-40.455v-71.372zM703.395 378.871c44.41-41.176 101.112-70.978 163.972-86.185l14.436 59.677c-122.926 29.738-186.265 113.944-203.153 177.018l-59.31-15.881c13.212-49.342 42.278-95.896 84.055-134.629z" />
<glyph unicode="&#xe93f;" glyph-name="qp-lp6-60" d="M455.462 557.314l-24.984 23.064 18.572 17.147-127.743 0.001v-100.856h118.435l15.72 14.513-24.985 23.066 24.985 23.065zM356.29 538.275c-5.367 0-9.718 3.891-9.718 8.691s4.351 8.691 9.718 8.691 9.718-3.891 9.718-8.691c0-4.8-4.351-8.691-9.718-8.691zM381.719 584.183c5.556 0 10.059-4.028 10.059-8.995s-4.504-8.995-10.059-8.995-10.059 4.028-10.059 8.995c0 4.967 4.504 8.995 10.059 8.995zM382.762 503.331c-5.556 0-10.059 4.027-10.059 8.995s4.504 8.995 10.059 8.995 10.059-4.027 10.059-8.995c0-4.967-4.504-8.995-10.059-8.995zM415.894 540.363c-5.556 0-10.059 4.028-10.059 8.995s4.504 8.995 10.059 8.995 10.059-4.027 10.059-8.995-4.504-8.995-10.059-8.995zM580.66 709.434h-134.843v-75.384h134.843zM509.194 781.613l-43.288-35.55h90.787zM617.186 597.524h-31.075l-19.083-17.144 25.674-23.065-25.675-23.066 25.674-23.066-16.153-14.513h129.174v100.856l-88.536-0.001zM608.787 507.637c-5.367 0-9.718 3.891-9.718 8.691s4.351 8.691 9.718 8.691 9.718-3.891 9.718-8.691c0-4.8-4.351-8.691-9.718-8.691zM653.99 552.148c5.367 0 9.718-3.891 9.718-8.691s-4.351-8.691-9.718-8.691-9.718 3.891-9.718 8.691c0 4.8 4.351 8.691 9.718 8.691zM619.719 578.216c0-4.799-4.351-8.691-9.718-8.691s-9.718 3.891-9.718 8.691c0 4.799 4.351 8.691 9.718 8.691s9.718-3.892 9.718-8.691zM885.755 586.736c0 205.583-166.658 372.241-372.241 372.241s-372.241-166.658-372.241-372.241c0-47.648 8.966-93.198 25.281-135.073h-0.874l2.872-4.991c12.807-31.509 29.798-60.864 50.294-87.379l294.667-419.198 294.667 419.197c20.497 26.516 37.489 55.871 50.295 87.38l2.872 4.991h-0.874c16.314 41.876 25.28 87.425 25.28 135.073zM742.248 460.144h-198.743l-31.131 27.973 25.674 23.065-25.674 23.066 25.674 23.066-25.674 23.065 19.084 17.145h-28.56l-18.571-17.145 24.986-23.064-24.986-23.066 24.985-23.066-24.985-23.066 30.295-27.972h-229.84v173.906h124.509v75.384h-45.539l144.398 118.586 158.44-118.586h-49.404v-75.383h125.064v-173.908z" />
<glyph unicode="&#xe940;" glyph-name="qp-cj4-60" d="M446.094 735.672h134.842v-75.384h-134.842v75.384zM509.471 807.852l-43.288-35.55h90.786zM617.462 623.763h-207.894v32.544h-87.698v-115.258h383.292v115.257h-87.698v-32.543zM366.631 641.686c6.284 0 11.379-4.556 11.379-10.176s-5.095-10.176-11.379-10.176-11.379 4.556-11.379 10.176 5.095 10.176 11.379 10.176zM367.811 550.222c-6.284 0-11.379 4.556-11.379 10.176s5.095 10.176 11.379 10.176 11.379-4.556 11.379-10.176c0-5.62-5.095-10.176-11.379-10.176zM398.616 595.615c-6.071 0-10.993 4.402-10.993 9.832s4.922 9.832 10.993 9.832c6.071 0 10.993-4.402 10.993-9.832s-4.922-9.832-10.993-9.832zM434.223 568.006c-6.284 0-11.379 4.556-11.379 10.176s5.095 10.176 11.379 10.176 11.379-4.556 11.379-10.176c0-5.62-5.094-10.176-11.379-10.176zM563.15 580.531c-6.071 0-10.993 4.402-10.993 9.832s4.922 9.832 10.993 9.832 10.993-4.402 10.993-9.832-4.922-9.832-10.993-9.832zM679.356 605.786c6.071 0 10.993-4.402 10.993-9.832s-4.922-9.832-10.993-9.832c-6.071 0-10.993 4.402-10.993 9.832s4.921 9.832 10.993 9.832zM646.95 651.857c6.071 0 10.993-4.402 10.993-9.832s-4.922-9.832-10.993-9.832c-6.071 0-10.993 4.402-10.993 9.832s4.922 9.832 10.993 9.832zM639.79 568.346c6.071 0 10.993-4.402 10.993-9.832s-4.922-9.832-10.993-9.832-10.993 4.402-10.993 9.832 4.922 9.832 10.993 9.832zM885.755 586.736c0 205.583-166.658 372.241-372.241 372.241s-372.241-166.658-372.241-372.241c0-47.648 8.966-93.198 25.281-135.073h-0.874l2.872-4.991c12.807-31.509 29.798-60.864 50.294-87.379l294.667-419.198 294.667 419.197c20.497 26.516 37.489 55.871 50.295 87.38l2.872 4.991h-0.874c16.314 41.876 25.28 87.425 25.28 135.073zM741.686 504.522h-456.342v188.31h124.223v42.84h-45.539l144.398 118.586 158.44-118.585h-49.404v-42.841h124.223v-188.31z" />
<glyph unicode="&#xe941;" glyph-name="huapo-60" d="M997.439 212.12l26.426 31.259-113.11 95.619-98.571-85.508 20.704-23.867v-39.373h-53.407l-277.022 485.344-102.652-109.528-72.544 74.469-326.213-511.683h993.787v61.398h-0.108v24.162l2.712-2.293zM580.759 414.552l-67.456 4.877-72.348 100.756 49.416 52.727 90.388-158.36zM337.368 542.172l46.457-47.69 70.73-98.503-85.908-66.597-141.306 40.209 110.027 172.582zM113.007 190.251l79.886 125.306 188.824-53.73 124.549 96.552 111.142-8.035 91.377-160.093h-595.778zM953.795 190.251h-79.974v60.116h-2.771l40.050 34.741 42.696-36.093v-58.764zM822.005 339.886l-69.815-42.758-125.898 205.564 69.815 42.758 125.898-205.564z" />
<glyph unicode="&#xe942;" glyph-name="huapo-30" d="M1017.846 228.214l-109.764 92.791-95.262-82.637 20.116-23.19 2.352 2.039v-48.457h-64.601l-279.168 477.97-102.7-107.085-72.558 72.789-316.149-484.606h986.764v24.922h0.019v61.43l11.133-9.411 19.818 23.445zM593.089 391.671l-94.338 6.665-81.875 111.43 66.648 69.493 109.564-187.587zM322.938 547.757l57.932-58.117 78.559-106.917-100.246-75.944-163.749 45.534 127.504 195.443zM75.688 168.761l96.286 147.591 195.772-54.439 126.349 95.718 123.994-8.761 105.197-180.11h-647.597zM956.196 168.761h-90.208v70.349h-5.461l47.814 41.478 47.856-40.455v-71.372zM683.93 517.716l121.286-198.033-52.361-32.069-121.286 198.033 52.361 32.069z" />
<glyph unicode="&#xe943;" glyph-name="tanta-30" d="M988.722 215.946l11.197-9.466 19.818 23.444-109.943 92.942-95.414-82.77 20.116-23.19 2.401 2.082v-48.641h-64.766l-279.657 478.806-102.877-107.269-72.682 72.915-316.656-485.384h1015.294v40.932h-26.83v45.599zM594.3 393.654l-94.594 6.683-82.051 111.669 66.823 69.676 109.822-188.028zM323.591 550.121l58.074-58.259 78.721-107.138-100.469-76.114-164.11 45.635 127.784 195.875zM75.833 170.347l96.511 147.937 196.132-54.539 126.572 95.888 124.251-8.779 105.429-180.507h-648.895zM862.11 240.86l47.942 41.589 47.971-40.552v-71.55h-90.426v70.513h-5.486zM575.803 541.943l63.105 29.826 69.227-8.932-29.828 63.106 8.932 69.226-63.105-29.827-69.227 8.932 29.828-63.106zM806.968 475.8l21.281 38.91 38.911 21.281-38.911 21.282-21.281 38.91-21.282-38.91-38.909-21.282 38.909-21.281zM797.35 310.318l20.609 37.683 37.684 20.61-37.684 20.609-20.609 37.683-20.61-37.683-37.682-20.609 37.682-20.61z" />
<glyph unicode="&#xe944;" glyph-name="tanta-60" d="M1000.199 173.478l2.712-2.293 26.426 31.259-113.11 95.62-98.571-85.51 20.703-23.866v-39.373h-64.088l-275.16 485.579-101.977-109.596-72.066 74.516-323.999-511.897h1020.767v61.398h-21.638v24.161zM576.374 374.012l-63.992 4.521-74.103 100.852 48.716 52.355 89.38-157.728zM335.201 501.021l45.743-47.298 72.456-98.61-88.169-66.794-140.014 38.935 109.984 173.768zM112.593 149.316l78.324 123.746 187.156-52.042 127.322 96.456 107.313-7.583 90.993-160.576h-591.108zM876.522 209.433l40.049 34.741 42.696-36.094v-58.763h-79.975v60.116h-2.77zM591.611 539.752l68.962 32.594 75.649-9.761-32.595 68.962 9.762 75.648-68.963-32.593-75.649 9.761 32.594-68.962zM843.582 469.896l22.506 41.15 41.151 22.506-41.151 22.507-22.506 41.149-22.507-41.149-41.148-22.507 41.148-22.506zM833.106 289.666l21.775 39.815 39.813 21.775-39.813 21.774-21.775 39.814-21.774-39.814-39.813-21.774 39.813-21.775z" />
<glyph unicode="&#xe945;" glyph-name="qp-tant5-60" d="M465.945 755.135l131.889-28.034-15.672-73.733-131.889 28.034 15.672 73.733zM542.963 812.545l-49.733-25.773 88.801-18.876zM885.755 586.736c0 205.583-166.658 372.241-372.241 372.241s-372.241-166.658-372.241-372.241c0-47.648 8.966-93.198 25.281-135.073h-0.874l2.872-4.991c12.807-31.509 29.798-60.864 50.294-87.379l294.667-419.198 294.667 419.197c20.497 26.516 37.489 55.871 50.295 87.38l2.872 4.991h-0.874c16.314 41.876 25.28 87.425 25.28 135.073zM741.531 502.476h-456.032v188.31h129.449l15.288 71.928-44.543 9.469 165.896 85.972 130.322-148.936-48.325 10.272-6.101-28.705h114.044v-188.31zM610.319 610.026l-203.351 43.223 0.215 1.011h-85.16v-115.258h382.98v115.257h-85.282l-9.401-44.233zM385.651 639.978c6.284 0 11.379-4.556 11.379-10.176s-5.095-10.176-11.379-10.176-11.379 4.556-11.379 10.176 5.095 10.176 11.379 10.176zM386.831 548.514c-6.284 0-11.379 4.556-11.379 10.176s5.095 10.176 11.379 10.176c6.284 0 11.379-4.556 11.379-10.176s-5.095-10.176-11.379-10.176zM417.636 593.907c-6.071 0-10.993 4.402-10.993 9.832s4.922 9.832 10.993 9.832c6.071 0 10.993-4.402 10.993-9.832s-4.921-9.832-10.993-9.832zM453.243 566.298c-6.284 0-11.379 4.556-11.379 10.176s5.095 10.176 11.379 10.176 11.379-4.556 11.379-10.176-5.095-10.176-11.379-10.176zM562.994 578.485c-6.071 0-10.993 4.402-10.993 9.832s4.922 9.832 10.993 9.832 10.993-4.402 10.993-9.832-4.921-9.832-10.993-9.832zM679.2 603.739c6.071 0 10.993-4.402 10.993-9.832s-4.922-9.832-10.993-9.832c-6.071 0-10.993 4.402-10.993 9.832s4.922 9.832 10.993 9.832zM646.795 649.81c6.071 0 10.993-4.401 10.993-9.832s-4.922-9.832-10.993-9.832-10.993 4.402-10.993 9.832c-0.001 5.431 4.921 9.832 10.993 9.832zM639.636 566.298c6.071 0 10.993-4.402 10.993-9.832s-4.922-9.832-10.993-9.832-10.993 4.402-10.993 9.832 4.921 9.832 10.993 9.832z" />
<glyph unicode="&#xe946;" glyph-name="leif-30" d="M445.669 166.015l43.257 38.772-43.257 38.774 43.257 38.774-43.257 38.77 43.257 38.775-0.311 0.278h81.87l0.32-0.279-44.45-38.773 44.45-38.772-44.45-38.773 44.45-38.774-44.449-38.772 42.167-36.788h328.488v271.864h-220.824v147.181h62.528l-235.287 176.103-214.433-176.103h58.197v-147.181h-219.896v-271.864h359.408l-41.036 36.788zM856.080 360.158v-189.999h-262.703l39.698 34.628-44.45 38.774 44.45 38.773-44.45 38.772 44.449 38.773-0.32 0.279 223.326 0.001zM504.6 672.37l110.884-82.992h-211.941l101.057 82.992zM388.126 548.272h247.129v-147.181h-247.13v147.181zM427.599 282.332l-43.256-38.772 43.256-38.774-38.634-34.628h-220.735v190l259.057-0.001 0.313-0.28-43.258-38.775 43.257-38.77zM261.783 320.327c0-10-9.065-18.107-20.247-18.107s-20.247 8.107-20.247 18.107c0 10 9.065 18.107 20.247 18.107s20.247-8.107 20.247-18.107zM248.534 203.002c0-10-9.065-18.107-20.247-18.107s-20.247 8.107-20.247 18.107c0 10 9.065 18.107 20.247 18.107s20.247-8.107 20.247-18.107zM837.147 271.805c0-9.661-8.758-17.493-19.562-17.493s-19.562 7.832-19.562 17.493c0 9.661 8.758 17.493 19.562 17.493s19.562-7.832 19.562-17.493zM732.588 193.792c0-9.661-8.758-17.493-19.562-17.493s-19.562 7.832-19.562 17.493c0 9.661 8.758 17.493 19.562 17.493s19.562-7.832 19.562-17.493zM725.765 338.434c0-9.661-8.758-17.493-19.562-17.493s-19.562 7.832-19.562 17.493c0 9.661 8.758 17.493 19.562 17.493s19.562-7.832 19.562-17.493zM318.010 273.951c0-9.661-8.758-17.493-19.562-17.493s-19.562 7.832-19.562 17.493c0 9.661 8.758 17.493 19.562 17.493s19.562-7.832 19.562-17.493zM683.706 252.754c0-9.661-8.758-17.493-19.562-17.493s-19.562 7.832-19.562 17.493c0 9.661 8.758 17.493 19.562 17.493s19.562-7.832 19.562-17.493zM382.052 225.438c0-10-9.065-18.107-20.247-18.107s-20.247 8.107-20.247 18.107c0 10 9.065 18.107 20.247 18.107s20.247-8.107 20.247-18.107z" />
<glyph unicode="&#xe947;" glyph-name="taxian-60" d="M677.008 435.718l10.957 30.105 78.037-28.403-182.090 278.405-296.264-104.298 71.932-26.181-54.459-149.627h-177.55v-316.539h769.261v316.539h-219.825zM613.471 558.46l-143.403 52.195 88.815 31.267 54.588-83.462zM630.27 486.822l-43.34-119.075-212.993 77.524 43.34 119.075 212.993-77.524zM835.435 180.577h-646.466v193.743h200.388l234.269-85.267 31.035 85.267h180.774v-193.743zM263.091 337.749c0-10.199-9.245-18.468-20.65-18.468s-20.65 8.268-20.65 18.468c0 10.199 9.245 18.468 20.65 18.468s20.65-8.268 20.65-18.468zM265.232 208.696c0-10.199-9.245-18.468-20.65-18.468s-20.65 8.268-20.65 18.468c0 10.199 9.245 18.468 20.65 18.468s20.65-8.268 20.65-18.468zM799.722 251.119c0-9.854-8.933-17.842-19.951-17.842s-19.951 7.988-19.951 17.842c0 9.854 8.933 17.842 19.951 17.842s19.951-7.988 19.951-17.842zM723.316 204.661c0-9.854-8.933-17.842-19.951-17.842s-19.951 7.988-19.951 17.842c0 9.854 8.933 17.842 19.951 17.842s19.951-7.988 19.951-17.842zM750.122 348.542c0-9.854-8.933-17.842-19.951-17.842s-19.951 7.988-19.951 17.842c0 9.854 8.933 17.842 19.951 17.842s19.951-7.988 19.951-17.842zM320.437 290.449c0-9.854-8.933-17.842-19.951-17.842s-19.951 7.988-19.951 17.842c0 9.854 8.933 17.842 19.951 17.842s19.951-7.988 19.951-17.842zM584.23 262.46c0-9.854-8.933-17.842-19.951-17.842s-19.951 7.988-19.951 17.842c0 9.854 8.933 17.842 19.951 17.842s19.951-7.988 19.951-17.842zM385.754 240.971c0-10.199-9.245-18.468-20.65-18.468s-20.65 8.268-20.65 18.468c0 10.199 9.245 18.468 20.65 18.468s20.65-8.268 20.65-18.468z" />
<glyph unicode="&#xe948;" glyph-name="taxian-30" d="M662.393 425.485l19.455 53.453 58.757-21.386-160.866 245.955-261.731-92.142 54.688-19.904-60.41-165.976h-183.815v-296.073h767.463v296.073h-233.541zM638.866 538.327l-199.159 72.488 123.347 43.424 75.812-115.912zM360.821 439.156l50.34 138.306 232.225-84.523-50.34-138.306-191.587 69.732c0.243 0.377 0.48 0.757 0.739 1.121h-3.818l-37.558 13.67zM855.002 170.344h-685.599v214.209h221.759l226.348-82.384 29.986 82.384h207.506v-214.209zM263.091 337.749c0-10.199-9.245-18.468-20.65-18.468s-20.65 8.268-20.65 18.468c0 10.199 9.245 18.468 20.65 18.468s20.65-8.268 20.65-18.468zM265.232 208.696c0-10.199-9.245-18.468-20.65-18.468s-20.65 8.268-20.65 18.468c0 10.199 9.245 18.468 20.65 18.468s20.65-8.268 20.65-18.468zM799.722 251.119c0-9.854-8.933-17.842-19.951-17.842s-19.951 7.988-19.951 17.842c0 9.854 8.933 17.842 19.951 17.842s19.951-7.988 19.951-17.842zM723.316 204.661c0-9.854-8.933-17.842-19.951-17.842s-19.951 7.988-19.951 17.842c0 9.854 8.933 17.842 19.951 17.842s19.951-7.988 19.951-17.842zM750.122 348.542c0-9.854-8.933-17.842-19.951-17.842s-19.951 7.988-19.951 17.842c0 9.854 8.933 17.842 19.951 17.842s19.951-7.988 19.951-17.842zM320.437 290.449c0-9.854-8.933-17.842-19.951-17.842s-19.951 7.988-19.951 17.842c0 9.854 8.933 17.842 19.951 17.842s19.951-7.988 19.951-17.842zM584.23 262.46c0-9.854-8.933-17.842-19.951-17.842s-19.951 7.988-19.951 17.842c0 9.854 8.933 17.842 19.951 17.842s19.951-7.988 19.951-17.842zM385.754 240.971c0-10.199-9.245-18.468-20.65-18.468s-20.65 8.268-20.65 18.468c0 10.199 9.245 18.468 20.65 18.468s20.65-8.268 20.65-18.468z" />
<glyph unicode="&#xe949;" glyph-name="cj-60" d="M686.42 444.929v72.011h83.045l-266.33 199.336-242.725-199.336h76.548v-72.011h-208.814v-316.539h767.089v316.539h-208.814zM504.893 638.27l79.842-59.758h-152.608l72.765 59.758zM625.022 516.94v-126.716h-226.663v126.716h226.663zM833.836 189.788h-644.292v193.743h147.416v-54.705h349.46v54.705h147.416v-193.743zM283.914 341.848c0-9.447-8.564-17.106-19.128-17.106s-19.128 7.658-19.128 17.106c0 9.447 8.564 17.106 19.128 17.106s19.128-7.658 19.128-17.106zM285.897 222.313c0-9.447-8.564-17.106-19.128-17.106s-19.128 7.658-19.128 17.106c0 9.447 8.564 17.106 19.128 17.106s19.128-7.658 19.128-17.106zM808.94 282.081c0-9.127-8.274-16.526-18.48-16.526s-18.48 7.399-18.48 16.526c0 9.127 8.274 16.526 18.48 16.526s18.48-7.399 18.48-16.526zM742.433 219.145c0-9.127-8.274-16.526-18.48-16.526s-18.48 7.399-18.48 16.526c0 9.127 8.274 16.526 18.48 16.526s18.48-7.399 18.48-16.526zM754.467 359.525c0-9.127-8.274-16.526-18.48-16.526s-18.48 7.399-18.48 16.526c0 9.127 8.274 16.526 18.48 16.526s18.48-7.399 18.48-16.526zM337.030 298.038c0-9.127-8.274-16.526-18.48-16.526s-18.48 7.399-18.48 16.526c0 9.127 8.274 16.526 18.48 16.526s18.48-7.399 18.48-16.526zM613.604 272.683c0-9.127-8.274-16.526-18.48-16.526s-18.48 7.399-18.48 16.526c0 9.127 8.274 16.526 18.48 16.526s18.48-7.399 18.48-16.526zM397.532 252.208c0-9.447-8.564-17.106-19.128-17.106s-19.128 7.658-19.128 17.106c0 9.447 8.564 17.106 19.128 17.106s19.128-7.658 19.128-17.106z" />
<glyph unicode="&#xe94a;" glyph-name="cj-30" d="M673.771 425.485v85.065h62.528l-235.287 176.102-214.434-176.102h58.198v-85.065h-217.133v-296.073h767.59v296.073h-221.463zM502.184 634.649l110.885-82.992h-211.942l101.057 82.992zM385.71 510.551h247.129v-147.183h-247.129v147.183zM854.302 170.344h-685.726v214.209h176.201v-62.117h328.994v62.117h180.531v-214.209zM265.084 330.579c0-9.949-9.018-18.014-20.143-18.014s-20.143 8.065-20.143 18.014c0 9.949 9.018 18.014 20.143 18.014s20.143-8.065 20.143-18.014zM267.173 204.695c0-9.949-9.018-18.014-20.143-18.014s-20.143 8.065-20.143 18.014c0 9.949 9.018 18.014 20.143 18.014s20.143-8.065 20.143-18.014zM817.99 267.637c0-9.612-8.713-17.404-19.461-17.404s-19.461 7.792-19.461 17.404c0 9.612 8.713 17.404 19.461 17.404s19.461-7.792 19.461-17.404zM747.952 201.36c0-9.612-8.713-17.404-19.461-17.404s-19.461 7.792-19.461 17.404c0 9.612 8.713 17.404 19.461 17.404s19.461-7.792 19.461-17.404zM760.626 349.193c0-9.612-8.713-17.404-19.461-17.404s-19.461 7.792-19.461 17.404c0 9.612 8.713 17.404 19.461 17.404s19.461-7.792 19.461-17.404zM321.022 284.441c0-9.612-8.713-17.404-19.461-17.404s-19.461 7.792-19.461 17.404c0 9.612 8.713 17.404 19.461 17.404s19.461-7.792 19.461-17.404zM612.282 257.74c0-9.612-8.713-17.404-19.461-17.404s-19.461 7.792-19.461 17.404c0 9.612 8.713 17.404 19.461 17.404s19.461-7.792 19.461-17.404zM384.736 236.178c0-9.949-9.018-18.014-20.143-18.014s-20.143 8.065-20.143 18.014c0 9.949 9.018 18.014 20.143 18.014s20.143-8.065 20.143-18.014z" />
<glyph unicode="&#xe94b;" glyph-name="leif-60" d="M686.42 448.2v126.682h83.045l-266.33 199.336-242.724-199.336h76.548v-126.681h-209.746v-320.032h307.224l63.178 70.507-52.353 58.426 52.354 58.424-52.354 58.423 11.49 12.82h67.342l-11.756-12.819 53.571-58.423-53.571-58.425 53.571-58.426-64.648-70.507h394.457v320.031h-209.298zM504.893 696.211l79.842-59.758h-152.608l72.765 59.758zM415.174 315.524l-52.353-58.424 52.354-58.426-8.162-9.108h-218.4v197.235l185.694-0.035-11.489-12.82 52.355-58.423zM511.777 448.165l0.032 0.035h-113.45v126.682h226.663v-126.681l-113.245-0.035zM834.32 189.566h-193.461l8.352 9.108-53.571 58.426 53.571 58.425-53.569 58.421 11.757 12.821 226.92 0.035v-197.235zM253.145 338.743c0-10-9.065-18.107-20.247-18.107s-20.247 8.107-20.247 18.107c0 10 9.065 18.107 20.247 18.107s20.247-8.107 20.247-18.107zM239.896 221.417c0-10-9.065-18.107-20.247-18.107s-20.247 8.107-20.247 18.107c0 10 9.065 18.107 20.247 18.107s20.247-8.107 20.247-18.107zM828.509 290.221c0-9.661-8.758-17.493-19.562-17.493s-19.562 7.832-19.562 17.493c0 9.661 8.758 17.493 19.562 17.493s19.562-7.832 19.562-17.493zM723.949 212.209c0-9.661-8.758-17.493-19.562-17.493s-19.562 7.832-19.562 17.493c0 9.661 8.758 17.493 19.562 17.493s19.562-7.832 19.562-17.493zM717.127 356.849c0-9.661-8.758-17.493-19.562-17.493s-19.562 7.832-19.562 17.493c0 9.661 8.758 17.493 19.562 17.493s19.562-7.832 19.562-17.493zM309.372 292.366c0-9.661-8.758-17.493-19.562-17.493s-19.562 7.832-19.562 17.493c0 9.661 8.758 17.493 19.562 17.493s19.562-7.832 19.562-17.493zM675.067 271.17c0-9.661-8.758-17.493-19.562-17.493s-19.562 7.832-19.562 17.493c0 9.661 8.758 17.493 19.562 17.493s19.562-7.832 19.562-17.493zM342.717 235.569c0-10-9.065-18.107-20.247-18.107s-20.247 8.107-20.247 18.107c0 10 9.065 18.107 20.247 18.107s20.247-8.107 20.247-18.107z" />
<glyph unicode="&#xe94c;" glyph-name="map-water" d="M885.755 586.736c0 205.583-166.658 372.241-372.241 372.241s-372.241-166.658-372.241-372.241c0-47.648 8.966-93.198 25.281-135.073h-0.874l2.872-4.991c12.807-31.509 29.798-60.864 50.294-87.379l294.667-419.198 294.667 419.197c20.497 26.516 37.489 55.871 50.295 87.38l2.872 4.991h-0.874c16.314 41.876 25.28 87.425 25.28 135.073zM465.743 597.719c-34.774 0-62.963 28.189-62.963 62.963s62.963 139.551 62.963 139.551 62.963-104.777 62.963-139.551-28.19-62.963-62.963-62.963zM583.727 677.535c-24.951 0-45.179 20.227-45.179 45.179s45.179 100.134 45.179 100.134 45.179-75.182 45.179-100.134-20.228-45.179-45.179-45.179z" />
<glyph unicode="&#xe94d;" glyph-name="cishen" d="M509.865 200.445c-14.956 0-29.632 5.963-40.447 17.133l-170.667 176.264h-240.147c-31.083 0-56.282 25.198-56.282 56.281s25.199 56.282 56.282 56.282h263.994c15.242 0 29.831-6.182 40.434-17.132l90.54-93.509v283.057c0 22.4 13.283 42.667 33.822 51.606 20.537 8.939 44.424 4.848 60.816-10.418l229.372-213.603h190.087c31.084 0 56.282-25.198 56.282-56.282 0-31.083-25.198-56.281-56.282-56.281h-212.235c-14.234 0-27.939 5.394-38.356 15.094l-150.944 140.564v-292.773c0-22.929-13.91-43.566-35.163-52.169-6.843-2.77-14.007-4.115-21.107-4.115z" />
<glyph unicode="&#xe94e;" glyph-name="map-shuiwen" d="M885.755 586.736c0 205.583-166.658 372.241-372.241 372.241s-372.241-166.658-372.241-372.241c0-47.648 8.966-93.198 25.281-135.073h-0.874l2.872-4.991c12.807-31.509 29.798-60.864 50.294-87.379l294.667-419.198 294.667 419.197c20.497 26.516 37.489 55.871 50.295 87.38l2.872 4.991h-0.874c16.314 41.876 25.28 87.425 25.28 135.073zM492.333 668.589v188.783c0 11.103 9.001 20.104 20.104 20.104s20.104-9.001 20.104-20.104v-188.296c8.631-6.173 14.256-16.277 14.256-27.697 0-18.793-15.235-34.029-34.029-34.029s-34.029 15.235-34.029 34.029c0.002 11.124 5.341 21.001 13.595 27.21zM348.475 662.467c20.225 0 31.211-5.711 40.038-10.301 7.746-4.027 13.343-6.936 26.274-6.936 12.933 0 18.529 2.909 26.275 6.936 6.091 3.166 13.21 6.865 23.68 8.856-2.532-6.204-3.86-12.915-3.86-19.642 0-4.152 0.493-8.19 1.418-12.062-2.491-1.036-4.861-2.268-7.476-3.627-8.828-4.59-19.814-10.301-40.039-10.301s-31.211 5.711-40.038 10.301c-7.746 4.027-13.343 6.936-26.274 6.936v29.84zM678.555 546.435c-20.225 0-31.212 5.711-40.039 10.3-7.747 4.027-13.344 6.936-26.276 6.936s-18.53-2.909-26.276-6.936c-8.828-4.589-19.814-10.3-40.039-10.3s-31.211 5.711-40.038 10.3c-7.746 4.027-13.343 6.936-26.275 6.936s-18.529-2.909-26.275-6.936c-8.828-4.589-19.813-10.3-40.039-10.3s-31.211 5.711-40.038 10.3c-7.746 4.027-13.343 6.936-26.274 6.936v29.84c20.225 0 31.211-5.711 40.038-10.3 7.746-4.027 13.343-6.936 26.275-6.936s18.529 2.909 26.275 6.936c8.827 4.589 19.813 10.3 40.039 10.3s31.211-5.711 40.038-10.3c7.746-4.027 13.343-6.936 26.275-6.936s18.53 2.909 26.276 6.936c8.827 4.589 19.814 10.3 40.039 10.3s31.212-5.711 40.039-10.3c7.746-4.027 13.344-6.936 26.276-6.936v-29.84zM680.046 615.39c-20.226 0-31.212 5.711-40.040 10.3-7.746 4.027-13.344 6.937-26.276 6.937s-18.53-2.909-26.276-6.937c-7.151-3.718-15.719-8.17-29.466-9.728 4.242 7.516 6.666 16.188 6.666 25.417 0 2.152-0.136 4.289-0.4 6.399 3.242 1.17 6.146 2.678 9.437 4.388 8.828 4.589 19.814 10.3 40.040 10.3s31.212-5.711 40.040-10.3c7.746-4.027 13.344-6.937 26.276-6.937v-29.839z" />
<glyph unicode="&#xe94f;" glyph-name="map-weiyi" d="M885.755 586.736c0 205.583-166.658 372.241-372.241 372.241s-372.241-166.658-372.241-372.241c0-47.648 8.966-93.198 25.281-135.073h-0.874l2.872-4.991c12.807-31.509 29.798-60.864 50.294-87.379l294.667-419.198 294.667 419.197c20.497 26.516 37.489 55.871 50.295 87.38l2.872 4.991h-0.874c16.314 41.876 25.28 87.425 25.28 135.073zM678.568 564.158h-330.222v37.478h330.222v-37.478zM587.129 611.952v48.343h-240.112v37.478l332.993 0.639-92.881-86.459zM680.012 744.155l-332.994 0.298 92.882 86.459v-49.279h240.112v-37.478z" />
<glyph unicode="&#xe950;" glyph-name="map-ditu-yali" d="M885.755 586.736c0 205.583-166.658 372.241-372.241 372.241s-372.241-166.658-372.241-372.241c0-47.648 8.966-93.198 25.281-135.073h-0.874l2.872-4.991c12.807-31.509 29.798-60.864 50.294-87.379l294.667-419.198 294.667 419.197c20.497 26.516 37.489 55.871 50.295 87.38l2.872 4.991h-0.874c16.314 41.876 25.28 87.425 25.28 135.073zM670.474 572.929h-313.92v61.398h88.807l-38.118 39.921h28.724v173.933h40.932v-173.933h28.724l-38.118-39.921h92.314l-38.118 39.921h28.724v173.933h40.932v-173.933h28.723l-38.118-39.921h88.509v-61.398z" />
<glyph unicode="&#xe951;" glyph-name="map-shentou" d="M885.755 586.736c0 205.583-166.658 372.241-372.241 372.241s-372.241-166.658-372.241-372.241c0-47.648 8.966-93.198 25.281-135.073h-0.874l2.872-4.991c12.807-31.509 29.798-60.864 50.294-87.379l294.667-419.198 294.667 419.197c20.497 26.516 37.489 55.871 50.295 87.38l2.872 4.991h-0.874c16.314 41.876 25.28 87.425 25.28 135.073zM502.481 816.351c0 7.488 6.127 13.613 13.613 13.613v0c7.488 0 13.613-6.127 13.613-13.613v-138.741c0-7.488-6.127-13.613-13.613-13.613v0c-7.488 0-13.613 6.127-13.613 13.613v138.741zM630.046 600.034h-233.062v179.86h34.228v-132.325h164.607v132.325h34.228v-179.86z" />
<glyph unicode="&#xe952;" glyph-name="map-hanshui" d="M442.461 627.287h142.107v177.020h-142.107v-177.020zM513.514 755.62c0 0 31.228-51.968 31.228-69.214s-13.981-31.228-31.228-31.228c-17.247 0-31.228 13.981-31.228 31.228 0 17.248 31.228 69.214 31.228 69.214zM885.755 586.736c0 205.583-166.658 372.241-372.241 372.241s-372.241-166.658-372.241-372.241c0-47.648 8.966-93.198 25.281-135.073h-0.874l2.872-4.991c12.807-31.509 29.798-60.864 50.294-87.379l294.667-419.198 294.667 419.197c20.497 26.516 37.489 55.871 50.295 87.38l2.872 4.991h-0.874c16.314 41.876 25.28 87.425 25.28 135.073zM620.383 613.183c0-11.991-9.72-21.711-21.711-21.711h-170.315c-11.991 0-21.711 9.72-21.711 21.711v205.228c0 11.991 9.72 21.711 21.711 21.711h170.315c11.991 0 21.711-9.72 21.711-21.711v-205.228z" />
<glyph unicode="&#xe953;" glyph-name="map-shuiyalli" d="M513.514 802.017c-39.362 0-71.386-32.023-71.386-71.385 0-4.895 0.497-9.676 1.44-14.298 13.355-4.146 35.072-3.405 69.239 14.761 28.086 14.932 55.033 10.013 71.953 3.79-2.208 37.388-33.313 67.131-71.246 67.131zM885.755 586.736c0 205.583-166.658 372.241-372.241 372.241s-372.241-166.658-372.241-372.241c0-47.648 8.966-93.198 25.281-135.073h-0.874l2.872-4.991c12.807-31.509 29.798-60.864 50.294-87.379l294.667-419.198 294.667 419.197c20.497 26.516 37.489 55.871 50.295 87.38l2.872 4.991h-0.874c16.314 41.876 25.28 87.425 25.28 135.073zM513.514 618.314c-62.031 0-112.318 50.286-112.318 112.318 0 62.031 50.286 112.317 112.318 112.317s112.317-50.286 112.317-112.317c0.001-62.032-50.285-112.318-112.317-112.318z" />
<glyph unicode="&#xe954;" glyph-name="map-niwei" d="M885.755 586.736c0 205.583-166.658 372.241-372.241 372.241s-372.241-166.658-372.241-372.241c0-47.648 8.966-93.198 25.281-135.073h-0.874l2.872-4.991c12.807-31.509 29.798-60.864 50.294-87.379l294.667-419.198 294.667 419.197c20.497 26.516 37.489 55.871 50.295 87.38l2.872 4.991h-0.874c16.314 41.876 25.28 87.425 25.28 135.073zM517.060 784.49c0 3.597 2.943 6.54 6.54 6.54h58.612c3.597 0 6.54-2.943 6.54-6.54v-0.501c0-3.597-2.943-6.54-6.54-6.54h-58.612c-3.597 0-6.54 2.943-6.54 6.54v0.501zM573.567 732.045v-2.654c0-3.004-2.459-5.463-5.463-5.463h-39.108c-3.004 0-5.463 2.459-5.463 5.463v2.654c0 3.004 2.458 5.463 5.463 5.463h39.108c3.005 0 5.463-2.458 5.463-5.463zM530.828 762.651c3.004 0 5.463-2.458 5.463-5.463v-2.654c0-3.004-2.458-5.463-5.463-5.463h-39.108c-3.004 0-5.463 2.459-5.463 5.463v2.654c0 3.004 2.458 5.463 5.463 5.463h39.108zM498.391 732.045v-2.654c0-3.004-2.459-5.463-5.463-5.463h-39.108c-3.004 0-5.463 2.459-5.463 5.463v2.654c0 3.004 2.459 5.463 5.463 5.463h39.108c3.004 0 5.463-2.458 5.463-5.463zM434.167 784.49c0 3.597 2.943 6.54 6.54 6.54h58.612c3.597 0 6.54-2.943 6.54-6.54v-0.501c0-3.597-2.943-6.54-6.54-6.54h-58.612c-3.597 0-6.54 2.943-6.54 6.54v0.501zM624.598 638.679h-222.167v169.147h14.079l34.338-138.903h122.844l34.338 138.903h16.567v-169.147z" />
<glyph unicode="&#xe955;" glyph-name="map-qiwen" d="M885.755 586.736c0 205.583-166.658 372.241-372.241 372.241s-372.241-166.658-372.241-372.241c0-47.648 8.966-93.198 25.281-135.073h-0.874l2.872-4.991c12.807-31.509 29.798-60.864 50.294-87.379l294.667-419.198 294.667 419.197c20.497 26.516 37.489 55.871 50.295 87.38l2.872 4.991h-0.874c16.314 41.876 25.28 87.425 25.28 135.073zM421.742 793.362c-12.685 0-22.968 10.283-22.968 22.968s10.283 22.968 22.968 22.968 22.968-10.283 22.968-22.968c0-12.685-10.283-22.968-22.968-22.968zM529.533 645.411h34.055c13.087 0 23.735 10.648 23.735 23.736h40.932c0-35.658-29.010-64.668-64.667-64.668h-34.055c-35.658 0-64.668 29.010-64.668 64.668v90.371c0 35.658 29.010 64.668 64.668 64.668h34.055c35.658 0 64.667-29.010 64.667-64.668h-40.932c0 13.088-10.648 23.736-23.735 23.736h-34.055c-13.088 0-23.736-10.648-23.736-23.736v-90.371c-0.001-13.088 10.648-23.736 23.736-23.736z" />
<glyph unicode="&#xe956;" glyph-name="map-huodong" d="M885.755 586.736c0 205.583-166.658 372.241-372.241 372.241s-372.241-166.658-372.241-372.241c0-47.648 8.966-93.198 25.281-135.073h-0.874l2.872-4.991c12.807-31.509 29.798-60.864 50.294-87.379l294.667-419.198 294.667 419.197c20.497 26.516 37.489 55.871 50.295 87.38l2.872 4.991h-0.874c16.314 41.876 25.28 87.425 25.28 135.073zM593.916 571.314v52.8h-262.247v40.932l363.691 0.698-101.444-94.43zM695.36 743.336l-363.691 0.325 101.444 94.43v-53.823h262.247v-40.932z" />
<glyph unicode="&#xe957;" glyph-name="map-gps" d="M882.687 594.41c0 205.583-166.658 372.241-372.241 372.241s-372.242-166.658-372.242-372.241c0-47.648 8.966-93.198 25.281-135.073h-0.874l2.872-4.991c12.807-31.509 29.798-60.864 50.294-87.379l294.667-419.198 294.667 419.197c20.497 26.516 37.489 55.871 50.295 87.38l2.872 4.991h-0.874c16.314 41.876 25.281 87.426 25.281 135.073zM397.094 580.539c-27.686 28.475-44.742 67.337-44.742 110.189 0 43.442 17.526 82.788 45.889 111.363l21.707-21.707c-23.796-24.013-36.897-55.826-36.897-89.656 0-33.281 12.683-64.61 35.751-88.48l-21.708-21.708zM450.365 633.811l-18.116-18.116c-18.69 19.472-30.179 45.91-30.179 75.032 0 29.713 11.961 56.629 31.326 76.207l18.101-18.101c-15.227-15.443-23.845-36.030-23.845-58.105 0-21.518 8.199-41.613 22.712-56.916zM481.923 665.369l-14.498-14.498c-9.699 10.463-15.636 24.464-15.636 39.857 0 15.983 6.401 30.466 16.77 41.046l14.484-14.484c-6.67-6.879-10.788-16.246-10.788-26.561 0-9.727 3.66-18.61 9.668-25.36zM510.738 669.235c-11.342 0-20.538 9.195-20.538 20.538s9.195 20.538 20.538 20.538 20.538-9.195 20.538-20.538-9.195-20.538-20.538-20.538zM552.343 649.695l-14.484 14.484c6.663 6.878 10.776 16.24 10.776 26.549 0 10.206-4.032 19.483-10.577 26.34l14.484 14.484c10.243-10.561 16.559-24.951 16.559-40.825-0.001-15.976-6.398-30.454-16.759-41.032zM569.403 632.634c15.22 15.441 23.834 36.022 23.834 58.093 0 21.972-8.542 42.467-23.635 57.885l18.104 18.103c19.239-19.559 31.114-46.385 31.114-75.989 0-29.707-11.956-56.617-31.315-76.194l-18.101 18.101zM622.66 579.376l-21.707 21.707c23.788 24.012 36.886 55.819 36.886 89.644 0 33.728-13.025 65.45-36.685 89.437l21.707 21.707c28.236-28.557 45.676-67.812 45.676-111.145 0-43.435-17.522-82.775-45.878-111.35z" />
<glyph unicode="&#xe958;" glyph-name="map-cexie" d="M588.070 727.773l-205.527 0.959v-62.949l55.826 36.292v-33.011l206.117-0.961v63.831l-56.417-32.252zM885.755 586.736c0 205.583-166.658 372.241-372.241 372.241s-372.241-166.658-372.241-372.241c0-47.648 8.966-93.198 25.281-135.073h-0.874l2.872-4.991c12.807-31.509 29.798-60.864 50.294-87.379l294.667-419.198 294.667 419.197c20.497 26.516 37.489 55.871 50.295 87.38l2.872 4.991h-0.874c16.314 41.876 25.28 87.425 25.28 135.073zM685.419 586.76h-40.932v50.642l-206.118 0.962v-34.032l-55.826 36.292v-53.864h-40.932v215.077h40.932v-42.406l205.527-0.959v29.112l56.417-32.252v46.504h40.932v-215.077z" />
<glyph unicode="&#xe959;" glyph-name="map-ship" d="M513.514 809.371c-37.881 0-68.7-30.819-68.7-68.7s30.819-68.7 68.7-68.7c37.882 0 68.7 30.819 68.7 68.7s-30.818 68.7-68.7 68.7zM513.514 708.41c-17.818 0-32.262 14.444-32.262 32.262s14.444 32.262 32.262 32.262c17.818 0 32.262-14.444 32.262-32.262s-14.444-32.262-32.262-32.262zM885.755 586.736c0 205.583-166.658 372.241-372.241 372.241s-372.241-166.658-372.241-372.241c0-47.648 8.966-93.198 25.281-135.073h-0.874l2.872-4.991c12.807-31.509 29.798-60.864 50.294-87.379l294.667-419.198 294.667 419.197c20.497 26.516 37.489 55.871 50.295 87.38l2.872 4.991h-0.874c16.314 41.876 25.28 87.425 25.28 135.073zM607.418 624.869c9.507-6.114 12.257-18.778 6.143-28.284-3.91-6.080-10.503-9.398-17.232-9.398-3.791 0-7.626 1.052-11.052 3.255-21.315 13.708-46.049 20.954-71.527 20.954-25.238 0-49.774-7.119-70.953-20.587-9.54-6.063-22.188-3.249-28.252 6.288s-3.25 22.187 6.288 28.252c12.696 8.073 26.314 14.383 40.508 18.878-34.22 18.552-57.458 54.784-57.458 96.444 0 60.548 49.084 109.632 109.632 109.632s109.632-49.084 109.632-109.632c0-41.591-23.16-77.771-57.287-96.351 14.58-4.589 28.556-11.089 41.559-19.451z" />
<glyph unicode="&#xe95a;" glyph-name="map-quans" d="M885.755 586.736c0 205.583-166.658 372.241-372.241 372.241s-372.241-166.658-372.241-372.241c0-47.648 8.966-93.198 25.281-135.073h-0.874l2.872-4.991c12.807-31.509 29.798-60.864 50.294-87.379l294.667-419.198 294.667 419.197c20.497 26.516 37.489 55.871 50.295 87.38l2.872 4.991h-0.874c16.314 41.876 25.28 87.425 25.28 135.073zM441.227 826.524l30.112-61.179 58.476 45.123 42.967-54.196 70.033 55.831 49.071-61.007-31.894-25.654-23.528 29.251-70.258-56.011-43.367 54.702-66.119-51.021-31.695 64.396-77.125-50.961-22.565 34.151 115.892 76.577zM669.801 604.279l-23.528 29.25-70.258-56.010-43.367 54.701-66.12-51.021-31.695 64.397-77.125-50.961-22.566 34.151 115.894 76.578 30.112-61.18 58.476 45.123 42.967-54.196 70.033 55.831 49.071-61.007-31.893-25.654z" />
<glyph unicode="&#xe95b;" glyph-name="map-lief" d="M885.755 586.736c0 205.583-166.658 372.241-372.241 372.241s-372.241-166.658-372.241-372.241c0-47.648 8.966-93.198 25.281-135.073h-0.874l2.872-4.991c12.807-31.509 29.798-60.864 50.294-87.379l294.667-419.198 294.667 419.197c20.497 26.516 37.489 55.871 50.295 87.38l2.872 4.991h-0.874c16.314 41.876 25.28 87.425 25.28 135.073zM513.514 638.266c-52.622 0-96.034 39.422-102.321 90.344h83.929v-19.765h116.259c-13.622-41.004-52.288-70.578-97.866-70.578zM531.907 754.139v19.765h-116.259c13.622 41.004 52.289 70.578 97.866 70.578 52.622 0 96.034-39.422 102.321-90.344h-83.929z" />
<glyph unicode="&#xe95c;" glyph-name="map-cishen" d="M885.755 586.736c0 205.583-166.658 372.241-372.241 372.241s-372.241-166.658-372.241-372.241c0-47.648 8.966-93.198 25.281-135.073h-0.874l2.872-4.991c12.807-31.509 29.798-60.864 50.294-87.379l294.667-419.198 294.667 419.197c20.497 26.516 37.489 55.871 50.295 87.38l2.872 4.991h-0.874c16.314 41.876 25.28 87.425 25.28 135.073zM662.451 686.555h-69.543c-6.919 0-13.367 3.496-17.145 9.291l-42.647 65.429 0.933-159.389c0.053-9.090-5.896-17.126-14.606-19.729-1.938-0.579-3.91-0.859-5.859-0.859-6.807 0-13.334 3.408-17.176 9.339l-62.152 95.918h-69.676c-11.303 0-20.466 9.163-20.466 20.466s9.163 20.466 20.466 20.466h80.801c6.938 0 13.403-3.515 17.176-9.337l30.15-46.532-0.931 159.040c-0.053 9.080 5.883 17.11 14.579 19.721s18.075-0.819 23.033-8.426l74.61-114.467h58.453c11.303 0 20.466-9.163 20.466-20.466s-9.163-20.465-20.466-20.465z" />
</font>
</defs>
</svg>
